Dotak-LightExtended.ufo
<glyph name="exclam" format="1">
  <advance width="336"/>
  <unicode hex="0021"/>
  <outline>
    <contour>
      <point x="192" y="148" type="line"/>
      <point x="196" y="272" type="line" smooth="yes"/>
      <point x="201" y="423"/>
      <point x="214" y="524"/>
      <point x="214" y="542" type="curve"/>
      <point x="214" y="559"/>
      <point x="205" y="573"/>
      <point x="184" y="573" type="curve"/>
      <point x="162" y="573"/>
      <point x="153" y="559"/>
      <point x="153" y="542" type="curve"/>
      <point x="153" y="524"/>
      <point x="166" y="424"/>
      <point x="171" y="272" type="curve" smooth="yes"/>
      <point x="175" y="148" type="line"/>
    </contour>
    <contour>
      <point x="152" y="54"/>
      <point x="134" y="41"/>
      <point x="134" y="22" type="curve"/>
      <point x="134" y="4"/>
      <point x="152" y="-10"/>
      <point x="183" y="-10" type="curve"/>
      <point x="215" y="-10"/>
      <point x="232" y="4"/>
      <point x="232" y="22" type="curve"/>
      <point x="232" y="41"/>
      <point x="215" y="54"/>
      <point x="183" y="54" type="curve"/>
    </contour>
  </outline>
</glyph>
<glyph name="quotesingle" format="1">
  <advance width="241"/>
  <unicode hex="0027"/>
  <outline>
    <contour>
      <point x="95" y="360" type="line"/>
      <point x="111" y="358" type="line"/>
      <point x="156" y="556" type="line"/>
      <point x="121" y="562" type="line"/>
    </contour>
  </outline>
</glyph>
<glyph name="parenleft" format="1">
  <advance width="412"/>
  <unicode hex="0028"/>
  <outline>
    <contour>
      <point x="337" y="-70" type="line"/>
      <point x="264" y="-26"/>
      <point x="120" y="77"/>
      <point x="120" y="265" type="curve"/>
      <point x="120" y="453"/>
      <point x="264" y="556"/>
      <point x="337" y="600" type="curve"/>
      <point x="329" y="619" type="line"/>
      <point x="245" y="574"/>
      <point x="95" y="461"/>
      <point x="95" y="265" type="curve"/>
      <point x="95" y="69"/>
      <point x="245" y="-44"/>
      <point x="329" y="-89" type="curve"/>
    </contour>
  </outline>
</glyph>
<glyph name="parenright" format="1">
  <advance width="412"/>
  <unicode hex="0029"/>
  <outline>
    <contour>
      <point x="167" y="-44"/>
      <point x="317" y="69"/>
      <point x="317" y="265" type="curve"/>
      <point x="317" y="461"/>
      <point x="167" y="574"/>
      <point x="83" y="619" type="curve"/>
      <point x="75" y="600" type="line"/>
      <point x="148" y="556"/>
      <point x="292" y="453"/>
      <point x="292" y="265" type="curve"/>
      <point x="292" y="77"/>
      <point x="148" y="-26"/>
      <point x="75" y="-70" type="curve"/>
      <point x="83" y="-89" type="line"/>
    </contour>
  </outline>
</glyph>
<glyph name="period" format="1">
  <advance width="246"/>
  <unicode hex="002E"/>
  <outline>
    <contour>
      <point x="155" y="-10"/>
      <point x="172" y="4"/>
      <point x="172" y="22" type="curve"/>
      <point x="172" y="41"/>
      <point x="155" y="54"/>
      <point x="123" y="54" type="curve"/>
      <point x="92" y="54"/>
      <point x="74" y="41"/>
      <point x="74" y="22" type="curve"/>
      <point x="74" y="4"/>
      <point x="92" y="-10"/>
      <point x="123" y="-10" type="curve"/>
    </contour>
  </outline>
</glyph>
<glyph name="slash" format="1">
  <advance width="417"/>
  <unicode hex="002F"/>
  <outline>
    <contour>
      <point x="382" y="561" type="line"/>
      <point x="354" y="561" type="line"/>
      <point x="21" y="-79" type="line"/>
      <point x="49" y="-79" type="line"/>
    </contour>
  </outline>
</glyph>
<glyph name="one" format="1">
  <advance width="477"/>
  <unicode hex="0031"/>
  <outline>
    <contour>
      <point x="168" y="351"/>
      <point x="254" y="386"/>
      <point x="281" y="475" type="curve"/>
      <point x="262" y="480" type="line"/>
      <point x="235" y="404"/>
      <point x="153" y="371"/>
      <point x="70" y="361" type="curve"/>
      <point x="74" y="336" type="line"/>
    </contour>
    <contour>
      <point x="446" y="0" type="line"/>
      <point x="446" y="23" type="line"/>
      <point x="70" y="23" type="line"/>
      <point x="70" y="0" type="line"/>
    </contour>
    <contour>
      <point x="286" y="0" type="line"/>
      <point x="286" y="480" type="line"/>
      <point x="262" y="480" type="line"/>
      <point x="262" y="0" type="line"/>
    </contour>
  </outline>
</glyph>
<glyph name="seven" format="1">
  <advance width="708"/>
  <unicode hex="0037"/>
  <outline>
    <contour>
      <point x="211" y="4" type="line"/>
      <point x="227" y="-10" type="line"/>
      <point x="668" y="444" type="line"/>
      <point x="642" y="450" type="line"/>
    </contour>
    <contour>
      <point x="65" y="467" type="line"/>
      <point x="65" y="284" type="line"/>
      <point x="89" y="284" type="line"/>
      <point x="89" y="444" type="line"/>
      <point x="668" y="444" type="line"/>
      <point x="668" y="467" type="line"/>
    </contour>
  </outline>
</glyph>
<glyph name="less" format="1">
  <advance width="574"/>
  <unicode hex="003C"/>
  <outline>
    <contour>
      <point x="494" y="399" type="line"/>
      <point x="494" y="424" type="line"/>
      <point x="40" y="237" type="line"/>
      <point x="40" y="234" type="line"/>
      <point x="67" y="227" type="line"/>
    </contour>
    <contour>
      <point x="494" y="73" type="line"/>
      <point x="67" y="244" type="line"/>
      <point x="40" y="237" type="line"/>
      <point x="40" y="234" type="line"/>
      <point x="494" y="48" type="line"/>
    </contour>
  </outline>
</glyph>
<glyph name="equal" format="1">
  <advance width="637"/>
  <unicode hex="003D"/>
  <outline>
    <contour>
      <point x="70" y="347" type="line"/>
      <point x="70" y="324" type="line"/>
      <point x="567" y="324" type="line"/>
      <point x="567" y="347" type="line"/>
    </contour>
    <contour>
      <point x="70" y="146" type="line"/>
      <point x="70" y="123" type="line"/>
      <point x="567" y="123" type="line"/>
      <point x="567" y="146" type="line"/>
    </contour>
  </outline>
</glyph>
<glyph name="question" format="1">
  <advance width="563"/>
  <unicode hex="003F"/>
  <outline>
    <contour>
      <point x="297" y="-10"/>
      <point x="313" y="4"/>
      <point x="313" y="22" type="curve"/>
      <point x="313" y="41"/>
      <point x="297" y="54"/>
      <point x="264" y="54" type="curve"/>
      <point x="233" y="54"/>
      <point x="215" y="41"/>
      <point x="215" y="22" type="curve"/>
      <point x="215" y="4"/>
      <point x="233" y="-10"/>
      <point x="264" y="-10" type="curve"/>
    </contour>
    <contour>
      <point x="137" y="471" type="line"/>
      <point x="187" y="492"/>
      <point x="237" y="506"/>
      <point x="306" y="506" type="curve" smooth="yes"/>
      <point x="394" y="506"/>
      <point x="464" y="468"/>
      <point x="464" y="409" type="curve" smooth="yes"/>
      <point x="464" y="357"/>
      <point x="412" y="330"/>
      <point x="353" y="309" type="curve" smooth="yes"/>
      <point x="281" y="282"/>
      <point x="204" y="264"/>
      <point x="204" y="216" type="curve" smooth="yes"/>
      <point x="204" y="188"/>
      <point x="219" y="162"/>
      <point x="242" y="129" type="curve"/>
      <point x="254" y="134" type="line"/>
      <point x="240" y="162"/>
      <point x="227" y="182"/>
      <point x="227" y="210" type="curve" smooth="yes"/>
      <point x="227" y="248"/>
      <point x="292" y="264"/>
      <point x="360" y="288" type="curve" smooth="yes"/>
      <point x="425" y="311"/>
      <point x="489" y="342"/>
      <point x="489" y="408" type="curve" smooth="yes"/>
      <point x="489" y="488"/>
      <point x="401" y="529"/>
      <point x="306" y="529" type="curve" smooth="yes"/>
      <point x="236" y="529"/>
      <point x="184" y="515"/>
      <point x="130" y="494" type="curve"/>
    </contour>
  </outline>
</glyph>
<glyph name="F" format="1">
  <advance width="887"/>
  <unicode hex="0046"/>
  <outline>
    <contour>
      <point x="812" y="337" type="line"/>
      <point x="812" y="520" type="line"/>
      <point x="56" y="520" type="line"/>
      <point x="56" y="497" type="line"/>
      <point x="788" y="497" type="line"/>
      <point x="788" y="337" type="line"/>
    </contour>
    <contour>
      <point x="455" y="0" type="line"/>
      <point x="455" y="23" type="line"/>
      <point x="56" y="23" type="line"/>
      <point x="56" y="0" type="line"/>
    </contour>
    <contour>
      <point x="263" y="13" type="line"/>
      <point x="263" y="507" type="line"/>
      <point x="238" y="507" type="line"/>
      <point x="238" y="13" type="line"/>
    </contour>
    <contour>
      <point x="553" y="240" type="line"/>
      <point x="553" y="263" type="line"/>
      <point x="260" y="263" type="line"/>
      <point x="260" y="240" type="line"/>
    </contour>
    <contour>
      <point x="565" y="132" type="line"/>
      <point x="565" y="371" type="line"/>
      <point x="541" y="371" type="line"/>
      <point x="541" y="132" type="line"/>
    </contour>
  </outline>
</glyph>
<glyph name="L" format="1">
  <advance width="839"/>
  <unicode hex="004C"/>
  <outline>
    <contour>
      <point x="789" y="0" type="line"/>
      <point x="789" y="183" type="line"/>
      <point x="764" y="183" type="line"/>
      <point x="764" y="23" type="line"/>
      <point x="56" y="23" type="line"/>
      <point x="56" y="0" type="line"/>
    </contour>
    <contour>
      <point x="263" y="13" type="line"/>
      <point x="263" y="507" type="line"/>
      <point x="238" y="507" type="line"/>
      <point x="238" y="13" type="line"/>
    </contour>
    <contour>
      <point x="445" y="497" type="line"/>
      <point x="445" y="520" type="line"/>
      <point x="56" y="520" type="line"/>
      <point x="56" y="497" type="line"/>
    </contour>
  </outline>
</glyph>
<glyph name="bracketright" format="1">
  <advance width="369"/>
  <unicode hex="005D"/>
  <outline>
    <contour>
      <point x="214" y="-76" type="line"/>
      <point x="214" y="604" type="line"/>
      <point x="189" y="604" type="line"/>
      <point x="189" y="-76" type="line"/>
    </contour>
    <contour>
      <point x="212" y="-76" type="line"/>
      <point x="212" y="-53" type="line"/>
      <point x="-10" y="-53" type="line"/>
      <point x="-10" y="-76" type="line"/>
    </contour>
    <contour>
      <point x="212" y="581" type="line"/>
      <point x="212" y="604" type="line"/>
      <point x="-10" y="604" type="line"/>
      <point x="-10" y="581" type="line"/>
    </contour>
  </outline>
</glyph>
<glyph name="b" format="1">
  <advance width="859"/>
  <unicode hex="0062"/>
  <outline>
    <contour>
      <point x="639" y="-10"/>
      <point x="779" y="67"/>
      <point x="779" y="195" type="curve"/>
      <point x="779" y="303"/>
      <point x="684" y="367"/>
      <point x="541" y="367" type="curve"/>
      <point x="411" y="367"/>
      <point x="289" y="303"/>
      <point x="173" y="219" type="curve"/>
      <point x="173" y="196" type="line"/>
      <point x="298" y="284"/>
      <point x="427" y="344"/>
      <point x="541" y="344" type="curve"/>
      <point x="674" y="344"/>
      <point x="754" y="283"/>
      <point x="754" y="195" type="curve"/>
      <point x="754" y="85"/>
      <point x="628" y="12"/>
      <point x="476" y="13" type="curve"/>
      <point x="357" y="12"/>
      <point x="244" y="55"/>
      <point x="170" y="95" type="curve"/>
      <point x="170" y="73" type="line"/>
      <point x="242" y="32"/>
      <point x="347" y="-10"/>
      <point x="476" y="-10" type="curve"/>
    </contour>
    <contour>
      <point x="180" y="0" type="line"/>
      <point x="187" y="74" type="line"/>
      <point x="187" y="520" type="line"/>
      <point x="162" y="520" type="line"/>
      <point x="162" y="0" type="line"/>
    </contour>
    <contour>
      <point x="178" y="497" type="line"/>
      <point x="178" y="520" type="line"/>
      <point x="-20" y="520" type="line"/>
      <point x="-20" y="497" type="line"/>
    </contour>
  </outline>
</glyph>
<glyph name="l" format="1">
  <advance width="449"/>
  <unicode hex="006C"/>
  <outline>
    <contour>
      <point x="237" y="0" type="line"/>
      <point x="237" y="520" type="line"/>
      <point x="212" y="520" type="line"/>
      <point x="212" y="0" type="line"/>
    </contour>
    <contour>
      <point x="419" y="0" type="line"/>
      <point x="419" y="23" type="line"/>
      <point x="30" y="23" type="line"/>
      <point x="30" y="0" type="line"/>
    </contour>
    <contour>
      <point x="237" y="497" type="line"/>
      <point x="237" y="520" type="line"/>
      <point x="30" y="520" type="line"/>
      <point x="30" y="497" type="line"/>
    </contour>
  </outline>
</glyph>
<glyph name="w" format="1">
  <advance width="976"/>
  <unicode hex="0077"/>
  <outline>
    <contour>
      <point x="135" y="334" type="line"/>
      <point x="144" y="334" type="line"/>
      <point x="278" y="334" type="line"/>
      <point x="278" y="357" type="line"/>
      <point x="5" y="357" type="line"/>
      <point x="5" y="334" type="line"/>
    </contour>
    <contour>
      <point x="301" y="-10" type="line"/>
      <point x="311" y="9" type="line"/>
      <point x="149" y="348" type="line"/>
      <point x="122" y="348" type="line"/>
      <point x="295" y="-10" type="line"/>
    </contour>
    <contour>
      <point x="301" y="-10" type="line"/>
      <point x="493" y="325" type="line"/>
      <point x="486" y="348" type="line"/>
      <point x="483" y="348" type="line"/>
      <point x="290" y="9" type="line"/>
      <point x="295" y="-10" type="line"/>
    </contour>
    <contour>
      <point x="676" y="-10" type="line"/>
      <point x="683" y="9" type="line"/>
      <point x="489" y="348" type="line"/>
      <point x="483" y="348" type="line"/>
      <point x="477" y="325" type="line"/>
      <point x="670" y="-10" type="line"/>
    </contour>
    <contour>
      <point x="676" y="-10" type="line"/>
      <point x="849" y="348" type="line"/>
      <point x="824" y="348" type="line"/>
      <point x="664" y="9" type="line"/>
      <point x="671" y="-10" type="line"/>
    </contour>
    <contour>
      <point x="826" y="334" type="line"/>
      <point x="834" y="334" type="line"/>
      <point x="971" y="334" type="line"/>
      <point x="971" y="357" type="line"/>
      <point x="697" y="357" type="line"/>
      <point x="697" y="334" type="line"/>
    </contour>
  </outline>
</glyph>
<glyph name="y" format="1">
  <advance width="762"/>
  <unicode hex="0079"/>
  <outline>
    <contour>
      <point x="277" y="-180"/>
      <point x="333" y="-123"/>
      <point x="381" y="-48" type="curve" smooth="yes"/>
      <point x="631" y="343" type="line"/>
      <point x="603" y="343" type="line"/>
      <point x="353" y="-49" type="line" smooth="yes"/>
      <point x="309" y="-117"/>
      <point x="261" y="-157"/>
      <point x="191" y="-157" type="curve" smooth="yes"/>
      <point x="135" y="-157"/>
      <point x="93" y="-140"/>
      <point x="43" y="-116" type="curve"/>
      <point x="35" y="-138" type="line"/>
      <point x="87" y="-160"/>
      <point x="126" y="-180"/>
      <point x="190" y="-180" type="curve" smooth="yes"/>
    </contour>
    <contour>
      <point x="387" y="-10" type="line"/>
      <point x="146" y="348" type="line"/>
      <point x="118" y="348" type="line"/>
      <point x="372" y="-34" type="line"/>
    </contour>
    <contour>
      <point x="278" y="334" type="line"/>
      <point x="278" y="357" type="line"/>
      <point x="5" y="357" type="line"/>
      <point x="5" y="334" type="line"/>
    </contour>
    <contour>
      <point x="752" y="334" type="line"/>
      <point x="752" y="357" type="line"/>
      <point x="479" y="357" type="line"/>
      <point x="479" y="334" type="line"/>
    </contour>
  </outline>
</glyph>
<glyph name="braceleft" format="1">
  <advance width="529"/>
  <unicode hex="007B"/>
  <outline>
    <contour>
      <point x="366" y="-120"/>
      <point x="424" y="-109"/>
      <point x="469" y="-95" type="curve"/>
      <point x="462" y="-73" type="line"/>
      <point x="423" y="-84"/>
      <point x="372" y="-96"/>
      <point x="313" y="-96" type="curve" smooth="yes"/>
      <point x="237" y="-96"/>
      <point x="138" y="-72"/>
      <point x="138" y="1" type="curve" smooth="yes"/>
      <point x="138" y="101"/>
      <point x="340" y="91"/>
      <point x="340" y="191" type="curve" smooth="yes"/>
      <point x="340" y="239"/>
      <point x="274" y="270"/>
      <point x="186" y="270" type="curve"/>
      <point x="186" y="260" type="line"/>
      <point x="274" y="260"/>
      <point x="340" y="291"/>
      <point x="340" y="339" type="curve" smooth="yes"/>
      <point x="340" y="439"/>
      <point x="138" y="429"/>
      <point x="138" y="529" type="curve" smooth="yes"/>
      <point x="138" y="602"/>
      <point x="237" y="626"/>
      <point x="313" y="626" type="curve" smooth="yes"/>
      <point x="372" y="626"/>
      <point x="423" y="615"/>
      <point x="462" y="603" type="curve"/>
      <point x="469" y="625" type="line"/>
      <point x="424" y="639"/>
      <point x="366" y="650"/>
      <point x="305" y="650" type="curve" smooth="yes"/>
      <point x="214" y="650"/>
      <point x="113" y="617"/>
      <point x="113" y="532" type="curve" smooth="yes"/>
      <point x="113" y="410"/>
      <point x="316" y="418"/>
      <point x="316" y="340" type="curve" smooth="yes"/>
      <point x="316" y="302"/>
      <point x="270" y="276"/>
      <point x="172" y="276" type="curve" smooth="yes"/>
      <point x="110" y="276" type="line"/>
      <point x="110" y="254" type="line"/>
      <point x="172" y="254" type="line" smooth="yes"/>
      <point x="270" y="254"/>
      <point x="316" y="228"/>
      <point x="316" y="190" type="curve" smooth="yes"/>
      <point x="316" y="117"/>
      <point x="113" y="115"/>
      <point x="113" y="-2" type="curve" smooth="yes"/>
      <point x="113" y="-87"/>
      <point x="214" y="-120"/>
      <point x="305" y="-120" type="curve" smooth="yes"/>
    </contour>
  </outline>
</glyph>
<glyph name="braceright" format="1">
  <advance width="529"/>
  <unicode hex="007D"/>
  <outline>
    <contour>
      <point x="315" y="-120"/>
      <point x="416" y="-87"/>
      <point x="416" y="-2" type="curve" smooth="yes"/>
      <point x="416" y="115"/>
      <point x="213" y="117"/>
      <point x="213" y="190" type="curve" smooth="yes"/>
      <point x="213" y="228"/>
      <point x="259" y="254"/>
      <point x="357" y="254" type="curve" smooth="yes"/>
      <point x="419" y="254" type="line"/>
      <point x="419" y="276" type="line"/>
      <point x="357" y="276" type="line" smooth="yes"/>
      <point x="259" y="276"/>
      <point x="213" y="302"/>
      <point x="213" y="340" type="curve" smooth="yes"/>
      <point x="213" y="418"/>
      <point x="416" y="410"/>
      <point x="416" y="532" type="curve" smooth="yes"/>
      <point x="416" y="617"/>
      <point x="315" y="650"/>
      <point x="224" y="650" type="curve" smooth="yes"/>
      <point x="163" y="650"/>
      <point x="105" y="639"/>
      <point x="60" y="625" type="curve"/>
      <point x="67" y="603" type="line"/>
      <point x="106" y="615"/>
      <point x="157" y="626"/>
      <point x="216" y="626" type="curve" smooth="yes"/>
      <point x="292" y="626"/>
      <point x="391" y="602"/>
      <point x="391" y="529" type="curve" smooth="yes"/>
      <point x="391" y="429"/>
      <point x="189" y="439"/>
      <point x="189" y="339" type="curve" smooth="yes"/>
      <point x="189" y="291"/>
      <point x="255" y="260"/>
      <point x="343" y="260" type="curve"/>
      <point x="343" y="270" type="line"/>
      <point x="255" y="270"/>
      <point x="189" y="239"/>
      <point x="189" y="191" type="curve" smooth="yes"/>
      <point x="189" y="91"/>
      <point x="391" y="101"/>
      <point x="391" y="1" type="curve" smooth="yes"/>
      <point x="391" y="-72"/>
      <point x="292" y="-96"/>
      <point x="216" y="-96" type="curve" smooth="yes"/>
      <point x="157" y="-96"/>
      <point x="106" y="-84"/>
      <point x="67" y="-73" type="curve"/>
      <point x="60" y="-95" type="line"/>
      <point x="105" y="-109"/>
      <point x="163" y="-120"/>
      <point x="224" y="-120" type="curve" smooth="yes"/>
    </contour>
  </outline>
</glyph>
<glyph name="acute" format="1">
  <advance width="490"/>
  <unicode hex="00B4"/>
  <outline>
    <contour>
      <point x="285" y="741" type="line"/>
      <point x="300" y="713" type="line"/>
      <point x="59" y="584" type="line"/>
      <point x="50" y="600" type="line"/>
    </contour>
  </outline>
</glyph>
<glyph name="Agrave" format="1">
  <advance width="1024"/>
  <unicode hex="00C0"/>
  <outline>
    <contour>
      <point x="580" y="600" type="line"/>
      <point x="345" y="741" type="line"/>
      <point x="330" y="713" type="line"/>
      <point x="571" y="584" type="line"/>
    </contour>
    <contour>
      <point x="703" y="222" type="line"/>
      <point x="322" y="222" type="line"/>
      <point x="511" y="497" type="line"/>
      <point x="514" y="497" type="line"/>
    </contour>
    <contour>
      <point x="334" y="0" type="line"/>
      <point x="334" y="23" type="line"/>
      <point x="186" y="23" type="line"/>
      <point x="306" y="199" type="line"/>
      <point x="719" y="199" type="line"/>
      <point x="839" y="23" type="line"/>
      <point x="691" y="23" type="line"/>
      <point x="691" y="0" type="line"/>
      <point x="1029" y="0" type="line"/>
      <point x="1029" y="23" type="line"/>
      <point x="868" y="23" type="line"/>
      <point x="540" y="497" type="line"/>
      <point x="700" y="497" type="line"/>
      <point x="700" y="520" type="line"/>
      <point x="324" y="520" type="line"/>
      <point x="324" y="497" type="line"/>
      <point x="484" y="497" type="line"/>
      <point x="157" y="23" type="line"/>
      <point x="-5" y="23" type="line"/>
      <point x="-5" y="0" type="line"/>
    </contour>
  </outline>
</glyph>
<glyph name="Adieresis" format="1">
  <advance width="1024"/>
  <unicode hex="00C4"/>
  <outline>
    <contour>
      <point x="442" y="663" type="curve" smooth="yes"/>
      <point x="442" y="680"/>
      <point x="426" y="692"/>
      <point x="397" y="692" type="curve" smooth="yes"/>
      <point x="369" y="692"/>
      <point x="353" y="680"/>
      <point x="353" y="663" type="curve" smooth="yes"/>
      <point x="353" y="647"/>
      <point x="369" y="634"/>
      <point x="397" y="634" type="curve" smooth="yes"/>
      <point x="426" y="634"/>
      <point x="442" y="647"/>
    </contour>
    <contour>
      <point x="663" y="663" type="curve" smooth="yes"/>
      <point x="663" y="680"/>
      <point x="648" y="692"/>
      <point x="619" y="692" type="curve" smooth="yes"/>
      <point x="591" y="692"/>
      <point x="574" y="680"/>
      <point x="574" y="663" type="curve" smooth="yes"/>
      <point x="574" y="647"/>
      <point x="591" y="634"/>
      <point x="619" y="634" type="curve" smooth="yes"/>
      <point x="648" y="634"/>
      <point x="663" y="647"/>
    </contour>
    <contour>
      <point x="703" y="222" type="line"/>
      <point x="322" y="222" type="line"/>
      <point x="511" y="497" type="line"/>
      <point x="514" y="497" type="line"/>
    </contour>
    <contour>
      <point x="334" y="0" type="line"/>
      <point x="334" y="23" type="line"/>
      <point x="186" y="23" type="line"/>
      <point x="306" y="199" type="line"/>
      <point x="719" y="199" type="line"/>
      <point x="839" y="23" type="line"/>
      <point x="691" y="23" type="line"/>
      <point x="691" y="0" type="line"/>
      <point x="1029" y="0" type="line"/>
      <point x="1029" y="23" type="line"/>
      <point x="868" y="23" type="line"/>
      <point x="540" y="497" type="line"/>
      <point x="700" y="497" type="line"/>
      <point x="700" y="520" type="line"/>
      <point x="324" y="520" type="line"/>
      <point x="324" y="497" type="line"/>
      <point x="484" y="497" type="line"/>
      <point x="157" y="23" type="line"/>
      <point x="-5" y="23" type="line"/>
      <point x="-5" y="0" type="line"/>
    </contour>
  </outline>
</glyph>
<glyph name="Ecircumflex" format="1">
  <advance width="992"/>
  <unicode hex="00CA"/>
  <outline>
    <contour>
      <point x="529" y="679" type="line"/>
      <point x="695" y="552" type="line"/>
      <point x="706" y="565" type="line"/>
      <point x="539" y="707" type="line"/>
      <point x="519" y="707" type="line"/>
      <point x="352" y="565" type="line"/>
      <point x="363" y="552" type="line"/>
    </contour>
    <contour>
      <point x="862" y="183" type="line"/>
      <point x="838" y="183" type="line"/>
      <point x="838" y="23" type="line"/>
      <point x="263" y="23" type="line"/>
      <point x="263" y="261" type="line"/>
      <point x="571" y="261" type="line"/>
      <point x="571" y="153" type="line"/>
      <point x="596" y="153" type="line"/>
      <point x="596" y="392" type="line"/>
      <point x="571" y="392" type="line"/>
      <point x="571" y="284" type="line"/>
      <point x="263" y="284" type="line"/>
      <point x="263" y="497" type="line"/>
      <point x="837" y="497" type="line"/>
      <point x="837" y="337" type="line"/>
      <point x="862" y="337" type="line"/>
      <point x="862" y="520" type="line"/>
      <point x="56" y="520" type="line"/>
      <point x="56" y="497" type="line"/>
      <point x="238" y="497" type="line"/>
      <point x="238" y="23" type="line"/>
      <point x="56" y="23" type="line"/>
      <point x="56" y="0" type="line"/>
      <point x="862" y="0" type="line"/>
    </contour>
  </outline>
</glyph>
<glyph name="Iacute" format="1">
  <advance width="501"/>
  <unicode hex="00CD"/>
  <outline>
    <contour>
      <point x="183" y="600" type="line"/>
      <point x="192" y="584" type="line"/>
      <point x="433" y="713" type="line"/>
      <point x="418" y="741" type="line"/>
    </contour>
    <contour>
      <point x="445" y="0" type="line"/>
      <point x="445" y="23" type="line"/>
      <point x="263" y="23" type="line"/>
      <point x="263" y="497" type="line"/>
      <point x="445" y="497" type="line"/>
      <point x="445" y="520" type="line"/>
      <point x="56" y="520" type="line"/>
      <point x="56" y="497" type="line"/>
      <point x="238" y="497" type="line"/>
      <point x="238" y="23" type="line"/>
      <point x="56" y="23" type="line"/>
      <point x="56" y="0" type="line"/>
    </contour>
  </outline>
</glyph>
<glyph name="Idieresis" format="1">
  <advance width="501"/>
  <unicode hex="00CF"/>
  <outline>
    <contour>
      <point x="181" y="663" type="curve" smooth="yes"/>
      <point x="181" y="680"/>
      <point x="165" y="692"/>
      <point x="136" y="692" type="curve" smooth="yes"/>
      <point x="108" y="692"/>
      <point x="92" y="680"/>
      <point x="92" y="663" type="curve" smooth="yes"/>
      <point x="92" y="647"/>
      <point x="108" y="634"/>
      <point x="136" y="634" type="curve" smooth="yes"/>
      <point x="165" y="634"/>
      <point x="181" y="647"/>
    </contour>
    <contour>
      <point x="402" y="663" type="curve" smooth="yes"/>
      <point x="402" y="680"/>
      <point x="387" y="692"/>
      <point x="358" y="692" type="curve" smooth="yes"/>
      <point x="330" y="692"/>
      <point x="313" y="680"/>
      <point x="313" y="663" type="curve" smooth="yes"/>
      <point x="313" y="647"/>
      <point x="330" y="634"/>
      <point x="358" y="634" type="curve" smooth="yes"/>
      <point x="387" y="634"/>
      <point x="402" y="647"/>
    </contour>
    <contour>
      <point x="445" y="0" type="line"/>
      <point x="445" y="23" type="line"/>
      <point x="263" y="23" type="line"/>
      <point x="263" y="497" type="line"/>
      <point x="445" y="497" type="line"/>
      <point x="445" y="520" type="line"/>
      <point x="56" y="520" type="line"/>
      <point x="56" y="497" type="line"/>
      <point x="238" y="497" type="line"/>
      <point x="238" y="23" type="line"/>
      <point x="56" y="23" type="line"/>
      <point x="56" y="0" type="line"/>
    </contour>
  </outline>
</glyph>
<glyph name="Ograve" format="1">
  <advance width="916"/>
  <unicode hex="00D2"/>
  <outline>
    <contour>
      <point x="526" y="610" type="line"/>
      <point x="291" y="751" type="line"/>
      <point x="276" y="723" type="line"/>
      <point x="517" y="594" type="line"/>
    </contour>
    <contour>
      <point x="841" y="260" type="curve" smooth="yes"/>
      <point x="841" y="431"/>
      <point x="674" y="530"/>
      <point x="458" y="530" type="curve" smooth="yes"/>
      <point x="242" y="530"/>
      <point x="75" y="431"/>
      <point x="75" y="260" type="curve" smooth="yes"/>
      <point x="75" y="88"/>
      <point x="242" y="-10"/>
      <point x="458" y="-10" type="curve" smooth="yes"/>
      <point x="674" y="-10"/>
      <point x="841" y="88"/>
    </contour>
    <contour>
      <point x="100" y="260" type="curve" smooth="yes"/>
      <point x="100" y="414"/>
      <point x="252" y="507"/>
      <point x="458" y="507" type="curve" smooth="yes"/>
      <point x="663" y="507"/>
      <point x="816" y="414"/>
      <point x="816" y="260" type="curve" smooth="yes"/>
      <point x="816" y="106"/>
      <point x="663" y="13"/>
      <point x="458" y="13" type="curve" smooth="yes"/>
      <point x="252" y="13"/>
      <point x="100" y="106"/>
    </contour>
  </outline>
</glyph>
<glyph name="Otilde" format="1">
  <advance width="916"/>
  <unicode hex="00D5"/>
  <outline>
    <contour>
      <point x="660" y="748" type="curve"/>
      <point x="639" y="752" type="line"/>
      <point x="628" y="685"/>
      <point x="593" y="658"/>
      <point x="555" y="658" type="curve" smooth="yes"/>
      <point x="521" y="658"/>
      <point x="490" y="679"/>
      <point x="458" y="702" type="curve" smooth="yes"/>
      <point x="423" y="726"/>
      <point x="390" y="752"/>
      <point x="345" y="752" type="curve" smooth="yes"/>
      <point x="285" y="752"/>
      <point x="248" y="706"/>
      <point x="237" y="638" type="curve"/>
      <point x="258" y="634" type="line"/>
      <point x="269" y="702"/>
      <point x="304" y="730"/>
      <point x="343" y="730" type="curve" smooth="yes"/>
      <point x="378" y="730"/>
      <point x="407" y="709"/>
      <point x="439" y="686" type="curve" smooth="yes"/>
      <point x="474" y="662"/>
      <point x="509" y="636"/>
      <point x="553" y="636" type="curve" smooth="yes"/>
      <point x="612" y="636"/>
      <point x="649" y="681"/>
    </contour>
    <contour>
      <point x="841" y="260" type="curve" smooth="yes"/>
      <point x="841" y="431"/>
      <point x="674" y="530"/>
      <point x="458" y="530" type="curve" smooth="yes"/>
      <point x="242" y="530"/>
      <point x="75" y="431"/>
      <point x="75" y="260" type="curve" smooth="yes"/>
      <point x="75" y="88"/>
      <point x="242" y="-10"/>
      <point x="458" y="-10" type="curve" smooth="yes"/>
      <point x="674" y="-10"/>
      <point x="841" y="88"/>
    </contour>
    <contour>
      <point x="100" y="260" type="curve" smooth="yes"/>
      <point x="100" y="414"/>
      <point x="252" y="507"/>
      <point x="458" y="507" type="curve" smooth="yes"/>
      <point x="663" y="507"/>
      <point x="816" y="414"/>
      <point x="816" y="260" type="curve" smooth="yes"/>
      <point x="816" y="106"/>
      <point x="663" y="13"/>
      <point x="458" y="13" type="curve" smooth="yes"/>
      <point x="252" y="13"/>
      <point x="100" y="106"/>
    </contour>
  </outline>
</glyph>
<glyph name="Odieresis" format="1">
  <advance width="916"/>
  <unicode hex="00D6"/>
  <outline>
    <contour>
      <point x="388" y="673" type="curve" smooth="yes"/>
      <point x="388" y="690"/>
      <point x="372" y="702"/>
      <point x="343" y="702" type="curve" smooth="yes"/>
      <point x="315" y="702"/>
      <point x="299" y="690"/>
      <point x="299" y="673" type="curve" smooth="yes"/>
      <point x="299" y="657"/>
      <point x="315" y="644"/>
      <point x="343" y="644" type="curve" smooth="yes"/>
      <point x="372" y="644"/>
      <point x="388" y="657"/>
    </contour>
    <contour>
      <point x="609" y="673" type="curve" smooth="yes"/>
      <point x="609" y="690"/>
      <point x="594" y="702"/>
      <point x="565" y="702" type="curve" smooth="yes"/>
      <point x="537" y="702"/>
      <point x="520" y="690"/>
      <point x="520" y="673" type="curve" smooth="yes"/>
      <point x="520" y="657"/>
      <point x="537" y="644"/>
      <point x="565" y="644" type="curve" smooth="yes"/>
      <point x="594" y="644"/>
      <point x="609" y="657"/>
    </contour>
    <contour>
      <point x="841" y="260" type="curve" smooth="yes"/>
      <point x="841" y="431"/>
      <point x="674" y="530"/>
      <point x="458" y="530" type="curve" smooth="yes"/>
      <point x="242" y="530"/>
      <point x="75" y="431"/>
      <point x="75" y="260" type="curve" smooth="yes"/>
      <point x="75" y="88"/>
      <point x="242" y="-10"/>
      <point x="458" y="-10" type="curve" smooth="yes"/>
      <point x="674" y="-10"/>
      <point x="841" y="88"/>
    </contour>
    <contour>
      <point x="100" y="260" type="curve" smooth="yes"/>
      <point x="100" y="414"/>
      <point x="252" y="507"/>
      <point x="458" y="507" type="curve" smooth="yes"/>
      <point x="663" y="507"/>
      <point x="816" y="414"/>
      <point x="816" y="260" type="curve" smooth="yes"/>
      <point x="816" y="106"/>
      <point x="663" y="13"/>
      <point x="458" y="13" type="curve" smooth="yes"/>
      <point x="252" y="13"/>
      <point x="100" y="106"/>
    </contour>
  </outline>
</glyph>
<glyph name="multiply" format="1">
  <advance width="637"/>
  <unicode hex="00D7"/>
  <outline>
    <contour>
      <point x="528" y="70" type="line"/>
      <point x="106" y="423" type="line"/>
      <point x="89" y="404" type="line"/>
      <point x="511" y="51" type="line"/>
    </contour>
    <contour>
      <point x="527" y="405" type="line"/>
      <point x="511" y="423" type="line"/>
      <point x="89" y="70" type="line"/>
      <point x="105" y="52" type="line"/>
    </contour>
  </outline>
</glyph>
<glyph name="ccedilla" format="1">
  <advance width="773"/>
  <unicode hex="00E7"/>
  <outline>
    <contour>
      <point x="430" y="-175" type="curve" smooth="yes"/>
      <point x="493" y="-175"/>
      <point x="535" y="-158"/>
      <point x="535" y="-124" type="curve" smooth="yes"/>
      <point x="535" y="-87"/>
      <point x="496" y="-77"/>
      <point x="420" y="-73" type="curve" smooth="yes"/>
      <point x="361" y="-70"/>
      <point x="331" y="-59"/>
      <point x="331" y="-40" type="curve" smooth="yes"/>
      <point x="331" y="-24"/>
      <point x="348" y="-12"/>
      <point x="366" y="-10" type="curve"/>
      <point x="365" y="-9" type="line"/>
      <point x="500" y="-9"/>
      <point x="599" y="33"/>
      <point x="678" y="96" type="curve"/>
      <point x="663" y="114" type="line"/>
      <point x="589" y="56"/>
      <point x="489" y="13"/>
      <point x="365" y="14" type="curve" smooth="yes"/>
      <point x="218" y="15"/>
      <point x="105" y="78"/>
      <point x="105" y="172" type="curve" smooth="yes"/>
      <point x="105" y="286"/>
      <point x="242" y="345"/>
      <point x="375" y="344" type="curve" smooth="yes"/>
      <point x="484" y="344"/>
      <point x="599" y="306"/>
      <point x="666" y="220" type="curve"/>
      <point x="672" y="221" type="line"/>
      <point x="672" y="357" type="line"/>
      <point x="649" y="357" type="line"/>
      <point x="649" y="266" type="line"/>
      <point x="594" y="322"/>
      <point x="492" y="367"/>
      <point x="377" y="367" type="curve" smooth="yes"/>
      <point x="232" y="368"/>
      <point x="80" y="303"/>
      <point x="80" y="172" type="curve" smooth="yes"/>
      <point x="80" y="67"/>
      <point x="189" y="1"/>
      <point x="330" y="-8" type="curve"/>
      <point x="317" y="-15"/>
      <point x="308" y="-28"/>
      <point x="308" y="-44" type="curve" smooth="yes"/>
      <point x="308" y="-70"/>
      <point x="342" y="-91"/>
      <point x="420" y="-95" type="curve" smooth="yes"/>
      <point x="481" y="-98"/>
      <point x="512" y="-102"/>
      <point x="512" y="-124" type="curve" smooth="yes"/>
      <point x="512" y="-146"/>
      <point x="473" y="-153"/>
      <point x="430" y="-153" type="curve" smooth="yes"/>
      <point x="376" y="-153"/>
      <point x="325" y="-134"/>
      <point x="301" y="-115" type="curve"/>
      <point x="288" y="-133" type="line"/>
      <point x="313" y="-153"/>
      <point x="367" y="-175"/>
    </contour>
  </outline>
</glyph>
<glyph name="igrave" format="1">
  <advance width="469"/>
  <unicode hex="00EC"/>
  <outline>
    <contour>
      <point x="300" y="437" type="line"/>
      <point x="65" y="578" type="line"/>
      <point x="50" y="550" type="line"/>
      <point x="291" y="421" type="line"/>
    </contour>
    <contour>
      <point x="439" y="0" type="line"/>
      <point x="439" y="23" type="line"/>
      <point x="257" y="23" type="line"/>
      <point x="257" y="357" type="line"/>
      <point x="50" y="357" type="line"/>
      <point x="50" y="334" type="line"/>
      <point x="232" y="334" type="line"/>
      <point x="232" y="23" type="line"/>
      <point x="50" y="23" type="line"/>
      <point x="50" y="0" type="line"/>
    </contour>
  </outline>
</glyph>
<glyph name="icircumflex" format="1">
  <advance width="469"/>
  <unicode hex="00EE"/>
  <outline>
    <contour>
      <point x="232" y="516" type="line"/>
      <point x="398" y="389" type="line"/>
      <point x="409" y="402" type="line"/>
      <point x="242" y="544" type="line"/>
      <point x="222" y="544" type="line"/>
      <point x="55" y="402" type="line"/>
      <point x="66" y="389" type="line"/>
    </contour>
    <contour>
      <point x="439" y="0" type="line"/>
      <point x="439" y="23" type="line"/>
      <point x="257" y="23" type="line"/>
      <point x="257" y="357" type="line"/>
      <point x="50" y="357" type="line"/>
      <point x="50" y="334" type="line"/>
      <point x="232" y="334" type="line"/>
      <point x="232" y="23" type="line"/>
      <point x="50" y="23" type="line"/>
      <point x="50" y="0" type="line"/>
    </contour>
  </outline>
</glyph>
<glyph name="idieresis" format="1">
  <advance width="469"/>
  <unicode hex="00EF"/>
  <outline>
    <contour>
      <point x="162" y="500" type="curve" smooth="yes"/>
      <point x="162" y="517"/>
      <point x="146" y="529"/>
      <point x="117" y="529" type="curve" smooth="yes"/>
      <point x="89" y="529"/>
      <point x="73" y="517"/>
      <point x="73" y="500" type="curve" smooth="yes"/>
      <point x="73" y="484"/>
      <point x="89" y="471"/>
      <point x="117" y="471" type="curve" smooth="yes"/>
      <point x="146" y="471"/>
      <point x="162" y="484"/>
    </contour>
    <contour>
      <point x="383" y="500" type="curve" smooth="yes"/>
      <point x="383" y="517"/>
      <point x="368" y="529"/>
      <point x="339" y="529" type="curve" smooth="yes"/>
      <point x="311" y="529"/>
      <point x="294" y="517"/>
      <point x="294" y="500" type="curve" smooth="yes"/>
      <point x="294" y="484"/>
      <point x="311" y="471"/>
      <point x="339" y="471" type="curve" smooth="yes"/>
      <point x="368" y="471"/>
      <point x="383" y="484"/>
    </contour>
    <contour>
      <point x="439" y="0" type="line"/>
      <point x="439" y="23" type="line"/>
      <point x="257" y="23" type="line"/>
      <point x="257" y="357" type="line"/>
      <point x="50" y="357" type="line"/>
      <point x="50" y="334" type="line"/>
      <point x="232" y="334" type="line"/>
      <point x="232" y="23" type="line"/>
      <point x="50" y="23" type="line"/>
      <point x="50" y="0" type="line"/>
    </contour>
  </outline>
</glyph>
<glyph name="ntilde" format="1">
  <advance width="957"/>
  <unicode hex="00F1"/>
  <outline>
    <contour>
      <point x="721" y="585" type="curve"/>
      <point x="700" y="589" type="line"/>
      <point x="689" y="522"/>
      <point x="654" y="495"/>
      <point x="616" y="495" type="curve" smooth="yes"/>
      <point x="582" y="495"/>
      <point x="551" y="516"/>
      <point x="519" y="539" type="curve" smooth="yes"/>
      <point x="484" y="563"/>
      <point x="451" y="589"/>
      <point x="406" y="589" type="curve" smooth="yes"/>
      <point x="346" y="589"/>
      <point x="309" y="543"/>
      <point x="298" y="475" type="curve"/>
      <point x="319" y="471" type="line"/>
      <point x="330" y="539"/>
      <point x="365" y="567"/>
      <point x="404" y="567" type="curve" smooth="yes"/>
      <point x="439" y="567"/>
      <point x="468" y="546"/>
      <point x="500" y="523" type="curve" smooth="yes"/>
      <point x="535" y="499"/>
      <point x="570" y="473"/>
      <point x="614" y="473" type="curve" smooth="yes"/>
      <point x="673" y="473"/>
      <point x="710" y="518"/>
    </contour>
    <contour>
      <point x="417" y="0" type="line"/>
      <point x="417" y="23" type="line"/>
      <point x="257" y="23" type="line"/>
      <point x="257" y="198" type="line"/>
      <point x="324" y="252"/>
      <point x="440" y="344"/>
      <point x="567" y="344" type="curve" smooth="yes"/>
      <point x="713" y="344"/>
      <point x="747" y="237"/>
      <point x="747" y="135" type="curve" smooth="yes"/>
      <point x="747" y="23" type="line"/>
      <point x="587" y="23" type="line"/>
      <point x="587" y="0" type="line"/>
      <point x="944" y="0" type="line"/>
      <point x="944" y="23" type="line"/>
      <point x="772" y="23" type="line"/>
      <point x="772" y="135" type="line" smooth="yes"/>
      <point x="772" y="257"/>
      <point x="723" y="367"/>
      <point x="567" y="367" type="curve" smooth="yes"/>
      <point x="440" y="367"/>
      <point x="324" y="276"/>
      <point x="257" y="222" type="curve"/>
      <point x="257" y="357" type="line"/>
      <point x="50" y="357" type="line"/>
      <point x="50" y="334" type="line"/>
      <point x="232" y="334" type="line"/>
      <point x="232" y="23" type="line"/>
      <point x="50" y="23" type="line"/>
      <point x="50" y="0" type="line"/>
    </contour>
  </outline>
</glyph>
<glyph name="otilde" format="1">
  <advance width="799"/>
  <unicode hex="00F5"/>
  <outline>
    <contour>
      <point x="602" y="585" type="curve"/>
      <point x="581" y="589" type="line"/>
      <point x="570" y="522"/>
      <point x="535" y="495"/>
      <point x="497" y="495" type="curve" smooth="yes"/>
      <point x="463" y="495"/>
      <point x="432" y="516"/>
      <point x="400" y="539" type="curve" smooth="yes"/>
      <point x="365" y="563"/>
      <point x="332" y="589"/>
      <point x="287" y="589" type="curve" smooth="yes"/>
      <point x="227" y="589"/>
      <point x="190" y="543"/>
      <point x="179" y="475" type="curve"/>
      <point x="200" y="471" type="line"/>
      <point x="211" y="539"/>
      <point x="246" y="567"/>
      <point x="285" y="567" type="curve" smooth="yes"/>
      <point x="320" y="567"/>
      <point x="349" y="546"/>
      <point x="381" y="523" type="curve" smooth="yes"/>
      <point x="416" y="499"/>
      <point x="451" y="473"/>
      <point x="495" y="473" type="curve" smooth="yes"/>
      <point x="554" y="473"/>
      <point x="591" y="518"/>
    </contour>
    <contour>
      <point x="719" y="179" type="curve" smooth="yes"/>
      <point x="719" y="302"/>
      <point x="578" y="367"/>
      <point x="399" y="367" type="curve" smooth="yes"/>
      <point x="221" y="366"/>
      <point x="80" y="302"/>
      <point x="80" y="179" type="curve" smooth="yes"/>
      <point x="80" y="60"/>
      <point x="221" y="-10"/>
      <point x="399" y="-10" type="curve" smooth="yes"/>
      <point x="578" y="-10"/>
      <point x="719" y="60"/>
    </contour>
    <contour>
      <point x="105" y="179" type="curve" smooth="yes"/>
      <point x="105" y="285"/>
      <point x="232" y="343"/>
      <point x="399" y="344" type="curve" smooth="yes"/>
      <point x="567" y="344"/>
      <point x="695" y="285"/>
      <point x="695" y="179" type="curve" smooth="yes"/>
      <point x="695" y="76"/>
      <point x="567" y="13"/>
      <point x="399" y="13" type="curve" smooth="yes"/>
      <point x="232" y="13"/>
      <point x="105" y="76"/>
    </contour>
  </outline>
</glyph>
<glyph name="aogonek" format="1">
  <advance width="805"/>
  <unicode hex="0105"/>
  <outline>
    <contour>
      <point x="804" y="-148" type="curve" smooth="yes"/>
      <point x="859" y="-148"/>
      <point x="899" y="-128"/>
      <point x="927" y="-110" type="curve"/>
      <point x="917" y="-90" type="line"/>
      <point x="891" y="-107"/>
      <point x="852" y="-125"/>
      <point x="804" y="-125" type="curve" smooth="yes"/>
      <point x="752" y="-125"/>
      <point x="709" y="-102"/>
      <point x="709" y="-63" type="curve" smooth="yes"/>
      <point x="709" y="-39"/>
      <point x="722" y="-20"/>
      <point x="742" y="-6" type="curve"/>
      <point x="760" y="-1"/>
      <point x="777" y="8"/>
      <point x="792" y="19" type="curve"/>
      <point x="782" y="39" type="line"/>
      <point x="759" y="22"/>
      <point x="738" y="13"/>
      <point x="711" y="13" type="curve" smooth="yes"/>
      <point x="678" y="13"/>
      <point x="647" y="38"/>
      <point x="647" y="93" type="curve" smooth="yes"/>
      <point x="647" y="197" type="line" smooth="yes"/>
      <point x="647" y="297"/>
      <point x="572" y="367"/>
      <point x="414" y="367" type="curve" smooth="yes"/>
      <point x="315" y="367"/>
      <point x="213" y="346"/>
      <point x="104" y="310" type="curve"/>
      <point x="112" y="287" type="line"/>
      <point x="214" y="319"/>
      <point x="311" y="344"/>
      <point x="414" y="344" type="curve" smooth="yes"/>
      <point x="559" y="344"/>
      <point x="622" y="281"/>
      <point x="622" y="197" type="curve" smooth="yes"/>
      <point x="622" y="175" type="line"/>
      <point x="539" y="193"/>
      <point x="444" y="209"/>
      <point x="328" y="209" type="curve" smooth="yes"/>
      <point x="180" y="209"/>
      <point x="90" y="164"/>
      <point x="90" y="90" type="curve" smooth="yes"/>
      <point x="90" y="24"/>
      <point x="161" y="-10"/>
      <point x="287" y="-10" type="curve" smooth="yes"/>
      <point x="394" y="-10"/>
      <point x="517" y="18"/>
      <point x="624" y="71" type="curve"/>
      <point x="631" y="20"/>
      <point x="664" y="-9"/>
      <point x="709" y="-10" type="curve"/>
      <point x="693" y="-26"/>
      <point x="684" y="-45"/>
      <point x="684" y="-66" type="curve" smooth="yes"/>
      <point x="684" y="-118"/>
      <point x="739" y="-148"/>
    </contour>
    <contour>
      <point x="287" y="13" type="curve" smooth="yes"/>
      <point x="177" y="13"/>
      <point x="115" y="39"/>
      <point x="115" y="92" type="curve" smooth="yes"/>
      <point x="115" y="148"/>
      <point x="196" y="186"/>
      <point x="328" y="186" type="curve" smooth="yes"/>
      <point x="437" y="186"/>
      <point x="539" y="172"/>
      <point x="622" y="155" type="curve"/>
      <point x="622" y="93" type="line"/>
      <point x="511" y="42"/>
      <point x="392" y="13"/>
    </contour>
  </outline>
</glyph>
<glyph name="cacute" format="1">
  <advance width="773"/>
  <unicode hex="0107"/>
  <outline>
    <contour>
      <point x="309" y="447" type="line"/>
      <point x="318" y="431" type="line"/>
      <point x="559" y="560" type="line"/>
      <point x="544" y="588" type="line"/>
    </contour>
    <contour>
      <point x="678" y="96" type="curve"/>
      <point x="663" y="114" type="line"/>
      <point x="589" y="56"/>
      <point x="489" y="13"/>
      <point x="365" y="14" type="curve" smooth="yes"/>
      <point x="218" y="15"/>
      <point x="105" y="78"/>
      <point x="105" y="172" type="curve" smooth="yes"/>
      <point x="105" y="286"/>
      <point x="242" y="345"/>
      <point x="375" y="344" type="curve" smooth="yes"/>
      <point x="484" y="344"/>
      <point x="599" y="306"/>
      <point x="666" y="220" type="curve"/>
      <point x="672" y="221" type="line"/>
      <point x="672" y="357" type="line"/>
      <point x="649" y="357" type="line"/>
      <point x="649" y="266" type="line"/>
      <point x="594" y="322"/>
      <point x="492" y="367"/>
      <point x="377" y="367" type="curve" smooth="yes"/>
      <point x="232" y="368"/>
      <point x="80" y="303"/>
      <point x="80" y="172" type="curve" smooth="yes"/>
      <point x="80" y="58"/>
      <point x="208" y="-9"/>
      <point x="365" y="-9" type="curve" smooth="yes"/>
      <point x="500" y="-9"/>
      <point x="599" y="33"/>
    </contour>
  </outline>
</glyph>
<glyph name="Ccaron" format="1">
  <advance width="889"/>
  <unicode hex="010C"/>
  <outline>
    <contour>
      <point x="438" y="606" type="line"/>
      <point x="272" y="733" type="line"/>
      <point x="261" y="720" type="line"/>
      <point x="428" y="578" type="line"/>
      <point x="448" y="578" type="line"/>
      <point x="615" y="720" type="line"/>
      <point x="604" y="733" type="line"/>
    </contour>
    <contour>
      <point x="799" y="168" type="curve"/>
      <point x="779" y="181" type="line"/>
      <point x="739" y="107"/>
      <point x="629" y="12"/>
      <point x="431" y="12" type="curve" smooth="yes"/>
      <point x="249" y="12"/>
      <point x="100" y="106"/>
      <point x="100" y="260" type="curve" smooth="yes"/>
      <point x="100" y="414"/>
      <point x="254" y="507"/>
      <point x="439" y="507" type="curve" smooth="yes"/>
      <point x="577" y="507"/>
      <point x="694" y="461"/>
      <point x="784" y="330" type="curve"/>
      <point x="796" y="332" type="line"/>
      <point x="796" y="520" type="line"/>
      <point x="773" y="520" type="line"/>
      <point x="773" y="376" type="line"/>
      <point x="703" y="468"/>
      <point x="592" y="530"/>
      <point x="439" y="530" type="curve" smooth="yes"/>
      <point x="246" y="530"/>
      <point x="75" y="432"/>
      <point x="75" y="260" type="curve" smooth="yes"/>
      <point x="75" y="88"/>
      <point x="239" y="-11"/>
      <point x="431" y="-11" type="curve" smooth="yes"/>
      <point x="645" y="-11"/>
      <point x="752" y="85"/>
    </contour>
  </outline>
</glyph>
<glyph name="ccaron" format="1">
  <advance width="773"/>
  <unicode hex="010D"/>
  <outline>
    <contour>
      <point x="377" y="443" type="line"/>
      <point x="211" y="570" type="line"/>
      <point x="200" y="557" type="line"/>
      <point x="367" y="415" type="line"/>
      <point x="387" y="415" type="line"/>
      <point x="554" y="557" type="line"/>
      <point x="543" y="570" type="line"/>
    </contour>
    <contour>
      <point x="678" y="96" type="curve"/>
      <point x="663" y="114" type="line"/>
      <point x="589" y="56"/>
      <point x="489" y="13"/>
      <point x="365" y="14" type="curve" smooth="yes"/>
      <point x="218" y="15"/>
      <point x="105" y="78"/>
      <point x="105" y="172" type="curve" smooth="yes"/>
      <point x="105" y="286"/>
      <point x="242" y="345"/>
      <point x="375" y="344" type="curve" smooth="yes"/>
      <point x="484" y="344"/>
      <point x="599" y="306"/>
      <point x="666" y="220" type="curve"/>
      <point x="672" y="221" type="line"/>
      <point x="672" y="357" type="line"/>
      <point x="649" y="357" type="line"/>
      <point x="649" y="266" type="line"/>
      <point x="594" y="322"/>
      <point x="492" y="367"/>
      <point x="377" y="367" type="curve" smooth="yes"/>
      <point x="232" y="368"/>
      <point x="80" y="303"/>
      <point x="80" y="172" type="curve" smooth="yes"/>
      <point x="80" y="58"/>
      <point x="208" y="-9"/>
      <point x="365" y="-9" type="curve" smooth="yes"/>
      <point x="500" y="-9"/>
      <point x="599" y="33"/>
    </contour>
  </outline>
</glyph>
<glyph name="dcaron" format="1">
  <advance width="903"/>
  <unicode hex="010F"/>
  <outline>
    <contour>
      <point x="772" y="309" type="curve"/>
      <point x="784" y="298" type="line"/>
      <point x="860" y="373"/>
      <point x="892" y="445"/>
      <point x="891" y="522" type="curve"/>
      <point x="864" y="525" type="line"/>
      <point x="864" y="446"/>
      <point x="837" y="385"/>
    </contour>
    <contour>
      <point x="318" y="12" type="curve" smooth="yes"/>
      <point x="185" y="12"/>
      <point x="105" y="73"/>
      <point x="105" y="161" type="curve" smooth="yes"/>
      <point x="105" y="271"/>
      <point x="231" y="344"/>
      <point x="383" y="343" type="curve" smooth="yes"/>
      <point x="494" y="344"/>
      <point x="599" y="307"/>
      <point x="673" y="269" type="curve"/>
      <point x="673" y="151" type="line"/>
      <point x="552" y="68"/>
      <point x="428" y="12"/>
    </contour>
    <contour>
      <point x="673" y="94" type="line" smooth="yes"/>
      <point x="673" y="28"/>
      <point x="710" y="-10"/>
      <point x="761" y="-10" type="curve" smooth="yes"/>
      <point x="792" y="-10"/>
      <point x="819" y="2"/>
      <point x="843" y="19" type="curve"/>
      <point x="833" y="39" type="line"/>
      <point x="810" y="22"/>
      <point x="789" y="13"/>
      <point x="762" y="13" type="curve" smooth="yes"/>
      <point x="729" y="13"/>
      <point x="698" y="38"/>
      <point x="698" y="94" type="curve" smooth="yes"/>
      <point x="698" y="520" type="line"/>
      <point x="491" y="520" type="line"/>
      <point x="491" y="497" type="line"/>
      <point x="673" y="497" type="line"/>
      <point x="673" y="292" type="line"/>
      <point x="602" y="330"/>
      <point x="503" y="366"/>
      <point x="383" y="366" type="curve" smooth="yes"/>
      <point x="220" y="366"/>
      <point x="80" y="289"/>
      <point x="80" y="161" type="curve" smooth="yes"/>
      <point x="80" y="53"/>
      <point x="175" y="-11"/>
      <point x="318" y="-11" type="curve" smooth="yes"/>
      <point x="443" y="-11"/>
      <point x="561" y="48"/>
      <point x="673" y="128" type="curve"/>
    </contour>
  </outline>
</glyph>
<glyph name="Emacron" format="1">
  <advance width="992"/>
  <unicode hex="0112"/>
  <outline>
    <contour>
      <point x="286" y="677" type="line"/>
      <point x="286" y="653" type="line"/>
      <point x="763" y="653" type="line"/>
      <point x="763" y="677" type="line"/>
    </contour>
    <contour>
      <point x="862" y="183" type="line"/>
      <point x="838" y="183" type="line"/>
      <point x="838" y="23" type="line"/>
      <point x="263" y="23" type="line"/>
      <point x="263" y="261" type="line"/>
      <point x="571" y="261" type="line"/>
      <point x="571" y="153" type="line"/>
      <point x="596" y="153" type="line"/>
      <point x="596" y="392" type="line"/>
      <point x="571" y="392" type="line"/>
      <point x="571" y="284" type="line"/>
      <point x="263" y="284" type="line"/>
      <point x="263" y="497" type="line"/>
      <point x="837" y="497" type="line"/>
      <point x="837" y="337" type="line"/>
      <point x="862" y="337" type="line"/>
      <point x="862" y="520" type="line"/>
      <point x="56" y="520" type="line"/>
      <point x="56" y="497" type="line"/>
      <point x="238" y="497" type="line"/>
      <point x="238" y="23" type="line"/>
      <point x="56" y="23" type="line"/>
      <point x="56" y="0" type="line"/>
      <point x="862" y="0" type="line"/>
    </contour>
  </outline>
</glyph>
<glyph name="emacron" format="1">
  <advance width="751"/>
  <unicode hex="0113"/>
  <outline>
    <contour>
      <point x="133" y="524" type="line"/>
      <point x="133" y="500" type="line"/>
      <point x="610" y="500" type="line"/>
      <point x="610" y="524" type="line"/>
    </contour>
    <contour>
      <point x="413" y="163" type="curve" smooth="yes"/>
      <point x="310" y="163"/>
      <point x="214" y="179"/>
      <point x="113" y="212" type="curve"/>
      <point x="145" y="296"/>
      <point x="272" y="344"/>
      <point x="400" y="344" type="curve" smooth="yes"/>
      <point x="540" y="344"/>
      <point x="627" y="309"/>
      <point x="627" y="250" type="curve" smooth="yes"/>
      <point x="627" y="187"/>
      <point x="533" y="163"/>
    </contour>
    <contour>
      <point x="666" y="69" type="curve"/>
      <point x="654" y="89" type="line"/>
      <point x="581" y="43"/>
      <point x="494" y="12"/>
      <point x="370" y="13" type="curve" smooth="yes"/>
      <point x="218" y="14"/>
      <point x="105" y="77"/>
      <point x="105" y="171" type="curve" smooth="yes"/>
      <point x="105" y="179"/>
      <point x="106" y="186"/>
      <point x="107" y="194" type="curve"/>
      <point x="210" y="159"/>
      <point x="307" y="140"/>
      <point x="413" y="140" type="curve" smooth="yes"/>
      <point x="548" y="140"/>
      <point x="652" y="172"/>
      <point x="652" y="250" type="curve" smooth="yes"/>
      <point x="652" y="323"/>
      <point x="551" y="367"/>
      <point x="400" y="367" type="curve" smooth="yes"/>
      <point x="240" y="367"/>
      <point x="80" y="297"/>
      <point x="80" y="171" type="curve" smooth="yes"/>
      <point x="80" y="57"/>
      <point x="208" y="-10"/>
      <point x="370" y="-10" type="curve" smooth="yes"/>
      <point x="505" y="-10"/>
      <point x="590" y="22"/>
    </contour>
  </outline>
</glyph>
<glyph name="Eogonek" format="1">
  <advance width="992"/>
  <unicode hex="0118"/>
  <outline>
    <contour>
      <point x="997" y="-129" type="curve"/>
      <point x="987" y="-109" type="line"/>
      <point x="961" y="-126"/>
      <point x="922" y="-144"/>
      <point x="874" y="-144" type="curve" smooth="yes"/>
      <point x="822" y="-144"/>
      <point x="779" y="-121"/>
      <point x="779" y="-82" type="curve" smooth="yes"/>
      <point x="779" y="-42"/>
      <point x="815" y="-16"/>
      <point x="862" y="0" type="curve"/>
      <point x="862" y="183" type="line"/>
      <point x="838" y="183" type="line"/>
      <point x="838" y="23" type="line"/>
      <point x="263" y="23" type="line"/>
      <point x="263" y="261" type="line"/>
      <point x="571" y="261" type="line"/>
      <point x="571" y="153" type="line"/>
      <point x="596" y="153" type="line"/>
      <point x="596" y="392" type="line"/>
      <point x="571" y="392" type="line"/>
      <point x="571" y="284" type="line"/>
      <point x="263" y="284" type="line"/>
      <point x="263" y="497" type="line"/>
      <point x="837" y="497" type="line"/>
      <point x="837" y="337" type="line"/>
      <point x="862" y="337" type="line"/>
      <point x="862" y="520" type="line"/>
      <point x="56" y="520" type="line"/>
      <point x="56" y="497" type="line"/>
      <point x="238" y="497" type="line"/>
      <point x="238" y="23" type="line"/>
      <point x="56" y="23" type="line"/>
      <point x="56" y="0" type="line"/>
      <point x="824" y="0" type="line"/>
      <point x="779" y="-19"/>
      <point x="754" y="-49"/>
      <point x="754" y="-85" type="curve" smooth="yes"/>
      <point x="754" y="-137"/>
      <point x="809" y="-167"/>
      <point x="874" y="-167" type="curve" smooth="yes"/>
      <point x="929" y="-167"/>
      <point x="969" y="-147"/>
    </contour>
  </outline>
</glyph>
<glyph name="eogonek" format="1">
  <advance width="751"/>
  <unicode hex="0119"/>
  <outline>
    <contour>
      <point x="413" y="163" type="curve" smooth="yes"/>
      <point x="310" y="163"/>
      <point x="214" y="179"/>
      <point x="113" y="212" type="curve"/>
      <point x="145" y="296"/>
      <point x="272" y="344"/>
      <point x="400" y="344" type="curve" smooth="yes"/>
      <point x="540" y="344"/>
      <point x="627" y="309"/>
      <point x="627" y="250" type="curve" smooth="yes"/>
      <point x="627" y="187"/>
      <point x="533" y="163"/>
    </contour>
    <contour>
      <point x="801" y="-60" type="curve"/>
      <point x="791" y="-40" type="line"/>
      <point x="765" y="-57"/>
      <point x="726" y="-75"/>
      <point x="678" y="-75" type="curve" smooth="yes"/>
      <point x="626" y="-75"/>
      <point x="583" y="-52"/>
      <point x="583" y="-13" type="curve" smooth="yes"/>
      <point x="583" y="7"/>
      <point x="592" y="23"/>
      <point x="607" y="37" type="curve"/>
      <point x="628" y="46"/>
      <point x="647" y="57"/>
      <point x="666" y="69" type="curve"/>
      <point x="654" y="89" type="line"/>
      <point x="581" y="43"/>
      <point x="494" y="12"/>
      <point x="370" y="13" type="curve" smooth="yes"/>
      <point x="218" y="14"/>
      <point x="105" y="77"/>
      <point x="105" y="171" type="curve" smooth="yes"/>
      <point x="105" y="179"/>
      <point x="106" y="186"/>
      <point x="107" y="194" type="curve"/>
      <point x="210" y="159"/>
      <point x="307" y="140"/>
      <point x="413" y="140" type="curve" smooth="yes"/>
      <point x="548" y="140"/>
      <point x="652" y="172"/>
      <point x="652" y="250" type="curve" smooth="yes"/>
      <point x="652" y="323"/>
      <point x="551" y="367"/>
      <point x="400" y="367" type="curve" smooth="yes"/>
      <point x="240" y="367"/>
      <point x="80" y="297"/>
      <point x="80" y="171" type="curve" smooth="yes"/>
      <point x="80" y="57"/>
      <point x="208" y="-10"/>
      <point x="370" y="-10" type="curve" smooth="yes"/>
      <point x="451" y="-10"/>
      <point x="514" y="2"/>
      <point x="568" y="21" type="curve"/>
      <point x="561" y="10"/>
      <point x="558" y="-3"/>
      <point x="558" y="-16" type="curve" smooth="yes"/>
      <point x="558" y="-68"/>
      <point x="613" y="-98"/>
      <point x="678" y="-98" type="curve" smooth="yes"/>
      <point x="733" y="-98"/>
      <point x="773" y="-78"/>
    </contour>
  </outline>
</glyph>
<glyph name="gcommaaccent" format="1">
  <advance width="755"/>
  <unicode hex="0123"/>
  <outline>
    <contour>
      <point x="375" y="464" type="curve" smooth="yes"/>
      <point x="403" y="464"/>
      <point x="420" y="478"/>
      <point x="420" y="495" type="curve" smooth="yes"/>
      <point x="420" y="512"/>
      <point x="404" y="523"/>
      <point x="381" y="523" type="curve" smooth="yes"/>
      <point x="368" y="523"/>
      <point x="357" y="521"/>
      <point x="346" y="519" type="curve"/>
      <point x="353" y="563"/>
      <point x="385" y="599"/>
      <point x="435" y="644" type="curve"/>
      <point x="424" y="656" type="line"/>
      <point x="363" y="608"/>
      <point x="326" y="554"/>
      <point x="326" y="511" type="curve" smooth="yes"/>
      <point x="326" y="482"/>
      <point x="346" y="464"/>
    </contour>
    <contour>
      <point x="149" y="238" type="curve" smooth="yes"/>
      <point x="149" y="310"/>
      <point x="253" y="344"/>
      <point x="376" y="344" type="curve" smooth="yes"/>
      <point x="501" y="344"/>
      <point x="606" y="310"/>
      <point x="606" y="238" type="curve" smooth="yes"/>
      <point x="606" y="168"/>
      <point x="501" y="131"/>
      <point x="376" y="131" type="curve" smooth="yes"/>
      <point x="253" y="131"/>
      <point x="149" y="168"/>
    </contour>
    <contour>
      <point x="690" y="-30" type="curve" smooth="yes"/>
      <point x="690" y="31"/>
      <point x="630" y="59"/>
      <point x="554" y="59" type="curve" smooth="yes"/>
      <point x="479" y="59"/>
      <point x="315" y="26"/>
      <point x="238" y="26" type="curve" smooth="yes"/>
      <point x="134" y="26"/>
      <point x="101" y="63"/>
      <point x="101" y="94" type="curve" smooth="yes"/>
      <point x="101" y="128"/>
      <point x="131" y="149"/>
      <point x="161" y="163" type="curve"/>
      <point x="206" y="125"/>
      <point x="287" y="107"/>
      <point x="376" y="108" type="curve" smooth="yes"/>
      <point x="512" y="108"/>
      <point x="629" y="149"/>
      <point x="629" y="238" type="curve" smooth="yes"/>
      <point x="629" y="276"/>
      <point x="607" y="306"/>
      <point x="572" y="327" type="curve"/>
      <point x="592" y="394"/>
      <point x="635" y="418"/>
      <point x="688" y="421" type="curve"/>
      <point x="688" y="446" type="line"/>
      <point x="626" y="443"/>
      <point x="574" y="404"/>
      <point x="558" y="334" type="curve"/>
      <point x="511" y="356"/>
      <point x="446" y="367"/>
      <point x="376" y="367" type="curve" smooth="yes"/>
      <point x="241" y="367"/>
      <point x="124" y="327"/>
      <point x="124" y="238" type="curve" smooth="yes"/>
      <point x="124" y="213"/>
      <point x="133" y="192"/>
      <point x="149" y="175" type="curve"/>
      <point x="116" y="162"/>
      <point x="78" y="134"/>
      <point x="78" y="91" type="curve" smooth="yes"/>
      <point x="78" y="71"/>
      <point x="88" y="45"/>
      <point x="121" y="27" type="curve"/>
      <point x="96" y="13"/>
      <point x="70" y="-14"/>
      <point x="70" y="-49" type="curve" smooth="yes"/>
      <point x="70" y="-115"/>
      <point x="152" y="-165"/>
      <point x="350" y="-165" type="curve" smooth="yes"/>
      <point x="543" y="-165"/>
      <point x="690" y="-121"/>
    </contour>
    <contour>
      <point x="348" y="-143" type="curve" smooth="yes"/>
      <point x="166" y="-143"/>
      <point x="94" y="-100"/>
      <point x="94" y="-46" type="curve" smooth="yes"/>
      <point x="94" y="-19"/>
      <point x="113" y="5"/>
      <point x="139" y="19" type="curve"/>
      <point x="162" y="10"/>
      <point x="194" y="4"/>
      <point x="236" y="4" type="curve" smooth="yes"/>
      <point x="316" y="4"/>
      <point x="475" y="36"/>
      <point x="554" y="36" type="curve" smooth="yes"/>
      <point x="620" y="36"/>
      <point x="666" y="17"/>
      <point x="666" y="-30" type="curve" smooth="yes"/>
      <point x="666" y="-107"/>
      <point x="528" y="-143"/>
    </contour>
  </outline>
</glyph>
<glyph name="Imacron" format="1">
  <advance width="501"/>
  <unicode hex="012A"/>
  <outline>
    <contour>
      <point x="8" y="677" type="line"/>
      <point x="8" y="653" type="line"/>
      <point x="485" y="653" type="line"/>
      <point x="485" y="677" type="line"/>
    </contour>
    <contour>
      <point x="445" y="0" type="line"/>
      <point x="445" y="23" type="line"/>
      <point x="263" y="23" type="line"/>
      <point x="263" y="497" type="line"/>
      <point x="445" y="497" type="line"/>
      <point x="445" y="520" type="line"/>
      <point x="56" y="520" type="line"/>
      <point x="56" y="497" type="line"/>
      <point x="238" y="497" type="line"/>
      <point x="238" y="23" type="line"/>
      <point x="56" y="23" type="line"/>
      <point x="56" y="0" type="line"/>
    </contour>
  </outline>
</glyph>
<glyph name="imacron" format="1">
  <advance width="469"/>
  <unicode hex="012B"/>
  <outline>
    <contour>
      <point x="-11" y="514" type="line"/>
      <point x="-11" y="490" type="line"/>
      <point x="466" y="490" type="line"/>
      <point x="466" y="514" type="line"/>
    </contour>
    <contour>
      <point x="439" y="0" type="line"/>
      <point x="439" y="23" type="line"/>
      <point x="257" y="23" type="line"/>
      <point x="257" y="357" type="line"/>
      <point x="50" y="357" type="line"/>
      <point x="50" y="334" type="line"/>
      <point x="232" y="334" type="line"/>
      <point x="232" y="23" type="line"/>
      <point x="50" y="23" type="line"/>
      <point x="50" y="0" type="line"/>
    </contour>
  </outline>
</glyph>
<glyph name="Lcaron" format="1">
  <advance width="839"/>
  <unicode hex="013D"/>
  <outline>
    <contour>
      <point x="479" y="309" type="curve"/>
      <point x="491" y="298" type="line"/>
      <point x="567" y="373"/>
      <point x="599" y="445"/>
      <point x="598" y="522" type="curve"/>
      <point x="571" y="525" type="line"/>
      <point x="571" y="446"/>
      <point x="544" y="385"/>
    </contour>
    <contour>
      <point x="789" y="183" type="line"/>
      <point x="764" y="183" type="line"/>
      <point x="764" y="23" type="line"/>
      <point x="263" y="23" type="line"/>
      <point x="263" y="497" type="line"/>
      <point x="445" y="497" type="line"/>
      <point x="445" y="520" type="line"/>
      <point x="56" y="520" type="line"/>
      <point x="56" y="497" type="line"/>
      <point x="238" y="497" type="line"/>
      <point x="238" y="23" type="line"/>
      <point x="56" y="23" type="line"/>
      <point x="56" y="0" type="line"/>
      <point x="789" y="0" type="line"/>
    </contour>
  </outline>
</glyph>
<glyph name="lcaron" format="1">
  <advance width="449"/>
  <unicode hex="013E"/>
  <outline>
    <contour>
      <point x="311" y="308" type="curve"/>
      <point x="323" y="297" type="line"/>
      <point x="399" y="372"/>
      <point x="431" y="444"/>
      <point x="430" y="521" type="curve"/>
      <point x="403" y="524" type="line"/>
      <point x="403" y="445"/>
      <point x="376" y="384"/>
    </contour>
    <contour>
      <point x="419" y="0" type="line"/>
      <point x="419" y="23" type="line"/>
      <point x="237" y="23" type="line"/>
      <point x="237" y="520" type="line"/>
      <point x="30" y="520" type="line"/>
      <point x="30" y="497" type="line"/>
      <point x="212" y="497" type="line"/>
      <point x="212" y="23" type="line"/>
      <point x="30" y="23" type="line"/>
      <point x="30" y="0" type="line"/>
    </contour>
  </outline>
</glyph>
<glyph name="Lslash" format="1">
  <advance width="869"/>
  <unicode hex="0141"/>
  <outline>
    <contour>
      <point x="444" y="303" type="line"/>
      <point x="444" y="328" type="line"/>
      <point x="57" y="185" type="line"/>
      <point x="57" y="160" type="line"/>
    </contour>
    <component base="L"/>
  </outline>
</glyph>
<glyph name="Nacute" format="1">
  <advance width="1107"/>
  <unicode hex="0143"/>
  <outline>
    <contour>
      <point x="483" y="590" type="line"/>
      <point x="492" y="574" type="line"/>
      <point x="733" y="703" type="line"/>
      <point x="718" y="731" type="line"/>
    </contour>
    <contour>
      <point x="910" y="-5" type="line"/>
      <point x="910" y="497" type="line"/>
      <point x="1092" y="497" type="line"/>
      <point x="1092" y="520" type="line"/>
      <point x="703" y="520" type="line"/>
      <point x="703" y="497" type="line"/>
      <point x="885" y="497" type="line"/>
      <point x="885" y="43" type="line"/>
      <point x="263" y="520" type="line"/>
      <point x="56" y="520" type="line"/>
      <point x="56" y="497" type="line"/>
      <point x="238" y="497" type="line"/>
      <point x="238" y="23" type="line"/>
      <point x="56" y="23" type="line"/>
      <point x="56" y="0" type="line"/>
      <point x="445" y="0" type="line"/>
      <point x="445" y="23" type="line"/>
      <point x="263" y="23" type="line"/>
      <point x="263" y="486" type="line"/>
      <point x="905" y="-5" type="line"/>
    </contour>
  </outline>
</glyph>
<glyph name="omacron" format="1">
  <advance width="799"/>
  <unicode hex="014D"/>
  <outline>
    <contour>
      <point x="157" y="524" type="line"/>
      <point x="157" y="500" type="line"/>
      <point x="634" y="500" type="line"/>
      <point x="634" y="524" type="line"/>
    </contour>
    <contour>
      <point x="719" y="179" type="curve" smooth="yes"/>
      <point x="719" y="302"/>
      <point x="578" y="367"/>
      <point x="399" y="367" type="curve" smooth="yes"/>
      <point x="221" y="366"/>
      <point x="80" y="302"/>
      <point x="80" y="179" type="curve" smooth="yes"/>
      <point x="80" y="60"/>
      <point x="221" y="-10"/>
      <point x="399" y="-10" type="curve" smooth="yes"/>
      <point x="578" y="-10"/>
      <point x="719" y="60"/>
    </contour>
    <contour>
      <point x="105" y="179" type="curve" smooth="yes"/>
      <point x="105" y="285"/>
      <point x="232" y="343"/>
      <point x="399" y="344" type="curve" smooth="yes"/>
      <point x="567" y="344"/>
      <point x="695" y="285"/>
      <point x="695" y="179" type="curve" smooth="yes"/>
      <point x="695" y="76"/>
      <point x="567" y="13"/>
      <point x="399" y="13" type="curve" smooth="yes"/>
      <point x="232" y="13"/>
      <point x="105" y="76"/>
    </contour>
  </outline>
</glyph>
<glyph name="sacute" format="1">
  <advance width="743"/>
  <unicode hex="015B"/>
  <outline>
    <contour>
      <point x="302" y="447" type="line"/>
      <point x="311" y="431" type="line"/>
      <point x="552" y="560" type="line"/>
      <point x="537" y="588" type="line"/>
    </contour>
    <contour>
      <point x="408" y="-10" type="curve" smooth="yes"/>
      <point x="552" y="-10"/>
      <point x="638" y="19"/>
      <point x="638" y="86" type="curve" smooth="yes"/>
      <point x="638" y="158"/>
      <point x="553" y="177"/>
      <point x="363" y="188" type="curve" smooth="yes"/>
      <point x="189" y="198"/>
      <point x="126" y="222"/>
      <point x="126" y="268" type="curve" smooth="yes"/>
      <point x="126" y="318"/>
      <point x="197" y="345"/>
      <point x="314" y="345" type="curve" smooth="yes"/>
      <point x="439" y="345"/>
      <point x="549" y="306"/>
      <point x="622" y="220" type="curve"/>
      <point x="622" y="357" type="line"/>
      <point x="600" y="357" type="line"/>
      <point x="600" y="267" type="line"/>
      <point x="546" y="322"/>
      <point x="444" y="367"/>
      <point x="319" y="367" type="curve" smooth="yes"/>
      <point x="168" y="367"/>
      <point x="102" y="327"/>
      <point x="102" y="267" type="curve" smooth="yes"/>
      <point x="102" y="204"/>
      <point x="180" y="173"/>
      <point x="363" y="163" type="curve" smooth="yes"/>
      <point x="546" y="153"/>
      <point x="614" y="137"/>
      <point x="614" y="85" type="curve" smooth="yes"/>
      <point x="614" y="27"/>
      <point x="518" y="12"/>
      <point x="413" y="12" type="curve" smooth="yes"/>
      <point x="292" y="12"/>
      <point x="164" y="50"/>
      <point x="95" y="136" type="curve"/>
      <point x="95" y="0" type="line"/>
      <point x="117" y="0" type="line"/>
      <point x="117" y="88" type="line"/>
      <point x="172" y="33"/>
      <point x="284" y="-10"/>
    </contour>
  </outline>
</glyph>
<glyph name="umacron" format="1">
  <advance width="910"/>
  <unicode hex="016B"/>
  <outline>
    <contour>
      <point x="181" y="504" type="line"/>
      <point x="181" y="480" type="line"/>
      <point x="658" y="480" type="line"/>
      <point x="658" y="504" type="line"/>
    </contour>
    <contour>
      <point x="767" y="-10" type="curve" smooth="yes"/>
      <point x="799" y="-10"/>
      <point x="825" y="2"/>
      <point x="850" y="19" type="curve"/>
      <point x="840" y="39" type="line"/>
      <point x="817" y="22"/>
      <point x="795" y="13"/>
      <point x="768" y="13" type="curve" smooth="yes"/>
      <point x="736" y="13"/>
      <point x="704" y="38"/>
      <point x="704" y="94" type="curve" smooth="yes"/>
      <point x="704" y="357" type="line"/>
      <point x="519" y="357" type="line"/>
      <point x="519" y="334" type="line"/>
      <point x="679" y="334" type="line"/>
      <point x="679" y="107" type="line"/>
      <point x="582" y="58"/>
      <point x="476" y="13"/>
      <point x="381" y="13" type="curve" smooth="yes"/>
      <point x="271" y="14"/>
      <point x="210" y="60"/>
      <point x="210" y="165" type="curve" smooth="yes"/>
      <point x="210" y="357" type="line"/>
      <point x="13" y="357" type="line"/>
      <point x="13" y="334" type="line"/>
      <point x="185" y="334" type="line"/>
      <point x="185" y="165" type="line" smooth="yes"/>
      <point x="185" y="39"/>
      <point x="261" y="-10"/>
      <point x="381" y="-10" type="curve" smooth="yes"/>
      <point x="491" y="-10"/>
      <point x="583" y="37"/>
      <point x="679" y="83" type="curve"/>
      <point x="684" y="24"/>
      <point x="720" y="-10"/>
    </contour>
  </outline>
</glyph>
<glyph name="Uring" format="1">
  <advance width="1001"/>
  <unicode hex="016E"/>
  <outline>
    <contour>
      <point x="636" y="710" type="curve" smooth="yes"/>
      <point x="636" y="773"/>
      <point x="580" y="815"/>
      <point x="501" y="815" type="curve" smooth="yes"/>
      <point x="426" y="815"/>
      <point x="365" y="773"/>
      <point x="365" y="710" type="curve" smooth="yes"/>
      <point x="365" y="650"/>
      <point x="426" y="604"/>
      <point x="501" y="604" type="curve" smooth="yes"/>
      <point x="580" y="604"/>
      <point x="636" y="650"/>
    </contour>
    <contour>
      <point x="388" y="710" type="curve" smooth="yes"/>
      <point x="388" y="758"/>
      <point x="437" y="793"/>
      <point x="501" y="793" type="curve" smooth="yes"/>
      <point x="568" y="793"/>
      <point x="613" y="758"/>
      <point x="613" y="710" type="curve" smooth="yes"/>
      <point x="613" y="664"/>
      <point x="568" y="626"/>
      <point x="501" y="626" type="curve" smooth="yes"/>
      <point x="437" y="626"/>
      <point x="388" y="664"/>
    </contour>
    <contour>
      <point x="819" y="254" type="curve" smooth="yes"/>
      <point x="819" y="497" type="line"/>
      <point x="1001" y="497" type="line"/>
      <point x="1001" y="520" type="line"/>
      <point x="615" y="520" type="line"/>
      <point x="615" y="497" type="line"/>
      <point x="797" y="497" type="line"/>
      <point x="794" y="242" type="line" smooth="yes"/>
      <point x="792" y="89"/>
      <point x="675" y="13"/>
      <point x="501" y="13" type="curve" smooth="yes"/>
      <point x="326" y="13"/>
      <point x="209" y="89"/>
      <point x="207" y="243" type="curve" smooth="yes"/>
      <point x="204" y="497" type="line"/>
      <point x="386" y="497" type="line"/>
      <point x="386" y="520" type="line"/>
      <point x="0" y="520" type="line"/>
      <point x="0" y="497" type="line"/>
      <point x="182" y="497" type="line"/>
      <point x="182" y="254" type="line" smooth="yes"/>
      <point x="182" y="79"/>
      <point x="308" y="-10"/>
      <point x="501" y="-10" type="curve" smooth="yes"/>
      <point x="694" y="-10"/>
      <point x="819" y="79"/>
    </contour>
  </outline>
</glyph>
<glyph name="Uogonek" format="1">
  <advance width="1001"/>
  <unicode hex="0172"/>
  <outline>
    <contour>
      <point x="636" y="-139" type="curve"/>
      <point x="626" y="-119" type="line"/>
      <point x="600" y="-136"/>
      <point x="561" y="-154"/>
      <point x="513" y="-154" type="curve" smooth="yes"/>
      <point x="461" y="-154"/>
      <point x="418" y="-131"/>
      <point x="418" y="-92" type="curve" smooth="yes"/>
      <point x="418" y="-52"/>
      <point x="454" y="-26"/>
      <point x="501" y="-10" type="curve"/>
      <point x="694" y="-10"/>
      <point x="819" y="79"/>
      <point x="819" y="254" type="curve" smooth="yes"/>
      <point x="819" y="497" type="line"/>
      <point x="1001" y="497" type="line"/>
      <point x="1001" y="520" type="line"/>
      <point x="615" y="520" type="line"/>
      <point x="615" y="497" type="line"/>
      <point x="797" y="497" type="line"/>
      <point x="794" y="242" type="line" smooth="yes"/>
      <point x="792" y="89"/>
      <point x="675" y="13"/>
      <point x="501" y="13" type="curve" smooth="yes"/>
      <point x="326" y="13"/>
      <point x="209" y="89"/>
      <point x="207" y="243" type="curve" smooth="yes"/>
      <point x="204" y="497" type="line"/>
      <point x="386" y="497" type="line"/>
      <point x="386" y="520" type="line"/>
      <point x="0" y="520" type="line"/>
      <point x="0" y="497" type="line"/>
      <point x="182" y="497" type="line"/>
      <point x="182" y="254" type="line" smooth="yes"/>
      <point x="182" y="90"/>
      <point x="293" y="2"/>
      <point x="465" y="-9" type="curve"/>
      <point x="419" y="-27"/>
      <point x="393" y="-59"/>
      <point x="393" y="-95" type="curve" smooth="yes"/>
      <point x="393" y="-147"/>
      <point x="448" y="-177"/>
      <point x="513" y="-177" type="curve" smooth="yes"/>
      <point x="568" y="-177"/>
      <point x="608" y="-157"/>
    </contour>
  </outline>
</glyph>
<glyph name="Ydieresis" format="1">
  <advance width="920"/>
  <unicode hex="0178"/>
  <outline>
    <contour>
      <point x="390" y="653" type="curve" smooth="yes"/>
      <point x="390" y="670"/>
      <point x="374" y="682"/>
      <point x="345" y="682" type="curve" smooth="yes"/>
      <point x="317" y="682"/>
      <point x="301" y="670"/>
      <point x="301" y="653" type="curve" smooth="yes"/>
      <point x="301" y="637"/>
      <point x="317" y="624"/>
      <point x="345" y="624" type="curve" smooth="yes"/>
      <point x="374" y="624"/>
      <point x="390" y="637"/>
    </contour>
    <contour>
      <point x="611" y="653" type="curve" smooth="yes"/>
      <point x="611" y="670"/>
      <point x="596" y="682"/>
      <point x="567" y="682" type="curve" smooth="yes"/>
      <point x="539" y="682"/>
      <point x="522" y="670"/>
      <point x="522" y="653" type="curve" smooth="yes"/>
      <point x="522" y="637"/>
      <point x="539" y="624"/>
      <point x="567" y="624" type="curve" smooth="yes"/>
      <point x="596" y="624"/>
      <point x="611" y="637"/>
    </contour>
    <contour>
      <point x="655" y="0" type="line"/>
      <point x="655" y="23" type="line"/>
      <point x="473" y="23" type="line"/>
      <point x="473" y="182" type="line"/>
      <point x="754" y="497" type="line"/>
      <point x="915" y="497" type="line"/>
      <point x="915" y="520" type="line"/>
      <point x="579" y="520" type="line"/>
      <point x="579" y="497" type="line"/>
      <point x="721" y="497" type="line"/>
      <point x="461" y="206" type="line"/>
      <point x="201" y="497" type="line"/>
      <point x="342" y="497" type="line"/>
      <point x="342" y="520" type="line"/>
      <point x="5" y="520" type="line"/>
      <point x="5" y="497" type="line"/>
      <point x="165" y="497" type="line"/>
      <point x="448" y="181" type="line"/>
      <point x="448" y="23" type="line"/>
      <point x="266" y="23" type="line"/>
      <point x="266" y="0" type="line"/>
    </contour>
  </outline>
</glyph>
<glyph name="circumflex" format="1">
  <advance width="464"/>
  <unicode hex="02C6"/>
  <outline>
    <contour>
      <point x="232" y="679" type="line"/>
      <point x="398" y="552" type="line"/>
      <point x="409" y="565" type="line"/>
      <point x="242" y="707" type="line"/>
      <point x="222" y="707" type="line"/>
      <point x="55" y="565" type="line"/>
      <point x="66" y="552" type="line"/>
    </contour>
  </outline>
</glyph>
<glyph name="ring" format="1">
  <advance width="411"/>
  <unicode hex="02DA"/>
  <outline>
    <contour>
      <point x="285" y="614"/>
      <point x="341" y="660"/>
      <point x="341" y="720" type="curve"/>
      <point x="341" y="783"/>
      <point x="285" y="825"/>
      <point x="206" y="825" type="curve"/>
      <point x="131" y="825"/>
      <point x="70" y="783"/>
      <point x="70" y="720" type="curve"/>
      <point x="70" y="660"/>
      <point x="131" y="614"/>
      <point x="206" y="614" type="curve"/>
    </contour>
    <contour>
      <point x="142" y="636"/>
      <point x="93" y="674"/>
      <point x="93" y="720" type="curve"/>
      <point x="93" y="768"/>
      <point x="142" y="803"/>
      <point x="206" y="803" type="curve"/>
      <point x="273" y="803"/>
      <point x="318" y="768"/>
      <point x="318" y="720" type="curve"/>
      <point x="318" y="674"/>
      <point x="273" y="636"/>
      <point x="206" y="636" type="curve"/>
    </contour>
  </outline>
</glyph>
<glyph name="tilde" format="1">
  <advance width="563"/>
  <unicode hex="02DC"/>
  <outline>
    <contour>
      <point x="445" y="626"/>
      <point x="482" y="671"/>
      <point x="493" y="738" type="curve"/>
      <point x="472" y="742" type="line"/>
      <point x="461" y="675"/>
      <point x="426" y="648"/>
      <point x="388" y="648" type="curve" smooth="yes"/>
      <point x="354" y="648"/>
      <point x="323" y="669"/>
      <point x="291" y="692" type="curve" smooth="yes"/>
      <point x="256" y="716"/>
      <point x="223" y="742"/>
      <point x="178" y="742" type="curve" smooth="yes"/>
      <point x="118" y="742"/>
      <point x="81" y="696"/>
      <point x="70" y="628" type="curve"/>
      <point x="91" y="624" type="line"/>
      <point x="102" y="692"/>
      <point x="137" y="720"/>
      <point x="176" y="720" type="curve" smooth="yes"/>
      <point x="211" y="720"/>
      <point x="240" y="699"/>
      <point x="272" y="676" type="curve" smooth="yes"/>
      <point x="307" y="652"/>
      <point x="342" y="626"/>
      <point x="386" y="626" type="curve" smooth="yes"/>
    </contour>
  </outline>
</glyph>
<glyph name="grA" format="1">
  <advance width="1076"/>
  <unicode hex="0A05"/>
  <outline>
    <contour>
      <point x="888" y="490" type="line"/>
      <point x="863" y="490" type="line"/>
      <point x="863" y="0" type="line"/>
      <point x="888" y="0" type="line"/>
    </contour>
    <contour>
      <point x="1086" y="467" type="line"/>
      <point x="1086" y="490" type="line"/>
      <point x="863" y="490" type="line"/>
      <point x="863" y="467" type="line"/>
    </contour>
    <contour>
      <point x="233" y="276" type="curve"/>
      <point x="258" y="286" type="line"/>
      <point x="261" y="345"/>
      <point x="245" y="403"/>
      <point x="210" y="438" type="curve" smooth="yes"/>
      <point x="176" y="472"/>
      <point x="133" y="490"/>
      <point x="46" y="490" type="curve" smooth="yes"/>
      <point x="-10" y="490" type="line"/>
      <point x="-10" y="467" type="line"/>
      <point x="41" y="467" type="line" smooth="yes"/>
      <point x="121" y="467"/>
      <point x="162" y="452"/>
      <point x="192" y="422" type="curve" smooth="yes"/>
      <point x="224" y="390"/>
      <point x="236" y="340"/>
    </contour>
    <contour>
      <point x="519" y="134" type="curve" smooth="yes"/>
      <point x="443" y="65" type="line"/>
      <point x="461" y="49" type="line"/>
      <point x="533" y="113" type="line" smooth="yes"/>
      <point x="601" y="173"/>
      <point x="717" y="199"/>
      <point x="835" y="199" type="curve" smooth="yes"/>
      <point x="881" y="199" type="line"/>
      <point x="881" y="222" type="line"/>
      <point x="832" y="222" type="line" smooth="yes"/>
      <point x="725" y="222"/>
      <point x="613" y="201"/>
      <point x="547" y="151" type="curve"/>
      <point x="560" y="146" type="line"/>
      <point x="597" y="193"/>
      <point x="609" y="259"/>
      <point x="609" y="303" type="curve" smooth="yes"/>
      <point x="609" y="340"/>
      <point x="604" y="378"/>
      <point x="598" y="405" type="curve"/>
      <point x="581" y="405" type="line" smooth="yes"/>
      <point x="437" y="405"/>
      <point x="324" y="363"/>
      <point x="225" y="276" type="curve" smooth="yes"/>
      <point x="135" y="196" type="line"/>
      <point x="152" y="179" type="line"/>
      <point x="239" y="257" type="line" smooth="yes"/>
      <point x="326" y="335"/>
      <point x="441" y="382"/>
      <point x="572" y="382" type="curve" smooth="yes"/>
      <point x="589" y="382" type="line"/>
      <point x="577" y="388" type="line"/>
      <point x="582" y="365"/>
      <point x="585" y="335"/>
      <point x="585" y="304" type="curve" smooth="yes"/>
      <point x="585" y="256"/>
      <point x="568" y="179"/>
    </contour>
  </outline>
</glyph>
<glyph name="grKA" format="1">
  <advance width="907"/>
  <unicode hex="0A15"/>
  <outline>
    <contour>
      <point x="917" y="467" type="line"/>
      <point x="917" y="490" type="line"/>
      <point x="-10" y="490" type="line"/>
      <point x="-10" y="467" type="line"/>
    </contour>
    <contour>
      <point x="639" y="224" type="curve" smooth="yes"/>
      <point x="560" y="303"/>
      <point x="446" y="347"/>
      <point x="324" y="347" type="curve" smooth="yes"/>
      <point x="168" y="347"/>
      <point x="96" y="279"/>
      <point x="96" y="206" type="curve" smooth="yes"/>
      <point x="96" y="127"/>
      <point x="180" y="56"/>
      <point x="333" y="56" type="curve" smooth="yes"/>
      <point x="539" y="56"/>
      <point x="719" y="205"/>
      <point x="719" y="435" type="curve" smooth="yes"/>
      <point x="719" y="488" type="line"/>
      <point x="694" y="488" type="line"/>
      <point x="694" y="436" type="line" smooth="yes"/>
      <point x="694" y="219"/>
      <point x="523" y="79"/>
      <point x="334" y="79" type="curve" smooth="yes"/>
      <point x="208" y="79"/>
      <point x="121" y="135"/>
      <point x="121" y="204" type="curve" smooth="yes"/>
      <point x="121" y="269"/>
      <point x="190" y="324"/>
      <point x="324" y="324" type="curve" smooth="yes"/>
      <point x="428" y="324"/>
      <point x="545" y="283"/>
      <point x="621" y="207" type="curve" smooth="yes"/>
      <point x="677" y="151"/>
      <point x="723" y="76"/>
      <point x="753" y="-3" type="curve"/>
      <point x="776" y="4" type="line"/>
      <point x="744" y="85"/>
      <point x="697" y="166"/>
    </contour>
  </outline>
</glyph>
<glyph name="grGHA" format="1">
  <advance width="1143"/>
  <unicode hex="0A18"/>
  <outline>
    <contour>
      <point x="955" y="490" type="line"/>
      <point x="930" y="490" type="line"/>
      <point x="930" y="0" type="line"/>
      <point x="955" y="0" type="line"/>
    </contour>
    <contour>
      <point x="1153" y="467" type="line"/>
      <point x="1153" y="490" type="line"/>
      <point x="932" y="490" type="line"/>
      <point x="932" y="467" type="line"/>
    </contour>
    <contour>
      <point x="203" y="467" type="line"/>
      <point x="203" y="490" type="line"/>
      <point x="-10" y="490" type="line"/>
      <point x="-10" y="467" type="line"/>
    </contour>
    <contour>
      <point x="371" y="75" type="curve" smooth="yes"/>
      <point x="468" y="75"/>
      <point x="544" y="110"/>
      <point x="586" y="189" type="curve"/>
      <point x="575" y="189" type="line"/>
      <point x="610" y="108"/>
      <point x="705" y="76"/>
      <point x="808" y="76" type="curve" smooth="yes"/>
      <point x="854" y="76"/>
      <point x="904" y="84"/>
      <point x="951" y="94" type="curve"/>
      <point x="951" y="118" type="line"/>
      <point x="901" y="105"/>
      <point x="846" y="99"/>
      <point x="805" y="99" type="curve" smooth="yes"/>
      <point x="718" y="99"/>
      <point x="622" y="128"/>
      <point x="593" y="204" type="curve"/>
      <point x="593" y="467" type="line"/>
      <point x="568" y="467" type="line"/>
      <point x="568" y="204" type="line"/>
      <point x="536" y="135"/>
      <point x="460" y="98"/>
      <point x="370" y="98" type="curve" smooth="yes"/>
      <point x="305" y="98"/>
      <point x="234" y="117"/>
      <point x="192" y="146" type="curve"/>
      <point x="198" y="128" type="line"/>
      <point x="228" y="304" type="line"/>
      <point x="203" y="490" type="line"/>
      <point x="177" y="490" type="line"/>
      <point x="203" y="305" type="line"/>
      <point x="171" y="128" type="line"/>
      <point x="228" y="94"/>
      <point x="297" y="75"/>
    </contour>
  </outline>
</glyph>
<glyph name="grNGA" format="1">
  <advance width="875"/>
  <unicode hex="0A19"/>
  <outline>
    <contour>
      <point x="885" y="467" type="line"/>
      <point x="885" y="490" type="line"/>
      <point x="-10" y="490" type="line"/>
      <point x="-10" y="467" type="line"/>
    </contour>
    <contour>
      <point x="213" y="487" type="line"/>
      <point x="188" y="487" type="line"/>
      <point x="188" y="322" type="line"/>
      <point x="213" y="322" type="line"/>
    </contour>
    <contour>
      <point x="294" y="183" type="curve" smooth="yes"/>
      <point x="180" y="183"/>
      <point x="132" y="140"/>
      <point x="132" y="91" type="curve" smooth="yes"/>
      <point x="132" y="40"/>
      <point x="180" y="0"/>
      <point x="303" y="0" type="curve" smooth="yes"/>
      <point x="553" y="0"/>
      <point x="754" y="117"/>
      <point x="754" y="231" type="curve" smooth="yes"/>
      <point x="754" y="296"/>
      <point x="700" y="345"/>
      <point x="562" y="345" type="curve" smooth="yes"/>
      <point x="202" y="345" type="line"/>
      <point x="202" y="322" type="line"/>
      <point x="554" y="322" type="line" smooth="yes"/>
      <point x="683" y="322"/>
      <point x="729" y="285"/>
      <point x="729" y="228" type="curve" smooth="yes"/>
      <point x="729" y="134"/>
      <point x="544" y="23"/>
      <point x="302" y="23" type="curve" smooth="yes"/>
      <point x="199" y="23"/>
      <point x="156" y="56"/>
      <point x="156" y="91" type="curve" smooth="yes"/>
      <point x="156" y="125"/>
      <point x="197" y="160"/>
      <point x="294" y="160" type="curve" smooth="yes"/>
      <point x="410" y="160"/>
      <point x="544" y="121"/>
      <point x="658" y="54" type="curve" smooth="yes"/>
      <point x="771" y="-12" type="line"/>
      <point x="784" y="6" type="line"/>
      <point x="676" y="70" type="line" smooth="yes"/>
      <point x="549" y="145"/>
      <point x="415" y="183"/>
    </contour>
  </outline>
</glyph>
<glyph name="grCHA" format="1">
  <advance width="960"/>
  <unicode hex="0A1B"/>
  <outline>
    <contour>
      <point x="103" y="50"/>
      <point x="180" y="-4"/>
      <point x="482" y="-4" type="curve" smooth="yes"/>
      <point x="802" y="-4"/>
      <point x="868" y="51"/>
      <point x="868" y="113" type="curve" smooth="yes"/>
      <point x="868" y="167"/>
      <point x="806" y="230"/>
      <point x="480" y="230" type="curve" smooth="yes"/>
      <point x="170" y="230"/>
      <point x="103" y="171"/>
      <point x="103" y="114" type="curve" smooth="yes"/>
    </contour>
    <contour>
      <point x="476" y="6" type="line"/>
      <point x="501" y="6" type="line"/>
      <point x="501" y="221" type="line"/>
      <point x="476" y="221" type="line"/>
    </contour>
    <contour>
      <point x="213" y="19"/>
      <point x="127" y="62"/>
      <point x="127" y="114" type="curve" smooth="yes"/>
      <point x="127" y="158"/>
      <point x="195" y="207"/>
      <point x="480" y="207" type="curve" smooth="yes"/>
      <point x="778" y="207"/>
      <point x="844" y="156"/>
      <point x="844" y="114" type="curve" smooth="yes"/>
      <point x="844" y="62"/>
      <point x="772" y="19"/>
      <point x="483" y="19" type="curve" smooth="yes"/>
    </contour>
    <contour>
      <point x="772" y="344" type="line"/>
      <point x="772" y="483" type="line"/>
      <point x="747" y="483" type="line"/>
      <point x="747" y="344" type="line"/>
    </contour>
    <contour>
      <point x="970" y="467" type="line"/>
      <point x="970" y="490" type="line"/>
      <point x="-10" y="490" type="line"/>
      <point x="-10" y="467" type="line"/>
    </contour>
    <contour>
      <point x="238" y="195" type="curve"/>
      <point x="268" y="208" type="line"/>
      <point x="183" y="225"/>
      <point x="152" y="255"/>
      <point x="152" y="283" type="curve" smooth="yes"/>
      <point x="152" y="293"/>
      <point x="155" y="303"/>
      <point x="164" y="312" type="curve" smooth="yes"/>
      <point x="183" y="331"/>
      <point x="222" y="344"/>
      <point x="320" y="344" type="curve" smooth="yes"/>
      <point x="759.0" y="344.0" type="line"/>
      <point x="759.0" y="367.0" type="line"/>
      <point x="318" y="367" type="line" smooth="yes"/>
      <point x="215" y="367"/>
      <point x="171" y="352"/>
      <point x="147" y="328" type="curve" smooth="yes"/>
      <point x="133" y="314"/>
      <point x="129" y="299"/>
      <point x="129" y="284" type="curve" smooth="yes"/>
      <point x="129" y="246"/>
      <point x="166" y="209"/>
    </contour>
  </outline>
</glyph>
<glyph name="grJA" format="1">
  <advance width="904"/>
  <unicode hex="0A1C"/>
  <outline>
    <contour>
      <point x="200" y="264" type="line"/>
      <point x="200" y="241" type="line"/>
      <point x="712" y="241" type="line"/>
      <point x="712" y="264" type="line"/>
    </contour>
    <contour>
      <point x="196" y="264" type="line"/>
      <point x="196" y="0" type="line"/>
      <point x="221" y="0" type="line"/>
      <point x="221" y="264" type="line"/>
    </contour>
    <contour>
      <point x="222" y="256" type="line"/>
      <point x="128" y="362" type="line"/>
      <point x="110" y="346" type="line"/>
      <point x="199" y="245" type="line"/>
    </contour>
    <contour>
      <point x="716" y="488" type="line"/>
      <point x="691" y="488" type="line"/>
      <point x="691" y="0" type="line"/>
      <point x="716" y="0" type="line"/>
    </contour>
    <contour>
      <point x="914" y="467" type="line"/>
      <point x="914" y="490" type="line"/>
      <point x="-10" y="490" type="line"/>
      <point x="-10" y="467" type="line"/>
    </contour>
  </outline>
</glyph>
<glyph name="grNYA" format="1">
  <advance width="986"/>
  <unicode hex="0A1E"/>
  <outline>
    <contour>
      <point x="217" y="478" type="curve"/>
      <point x="191" y="476" type="line"/>
      <point x="231" y="413"/>
      <point x="268" y="363"/>
      <point x="312" y="320" type="curve"/>
      <point x="332" y="332" type="line"/>
      <point x="298" y="364"/>
      <point x="243" y="431"/>
    </contour>
    <component base="uni0A35"/>
    <component base="grVA"/>
  </outline>
</glyph>
<glyph name="grTTA" format="1">
  <advance width="896"/>
  <unicode hex="0A1F"/>
  <outline>
    <contour>
      <point x="704" y="315" type="line"/>
      <point x="704" y="338" type="line"/>
      <point x="615" y="338" type="line" smooth="yes"/>
      <point x="368" y="338"/>
      <point x="222" y="282"/>
      <point x="104" y="176" type="curve"/>
      <point x="104" y="173" type="line"/>
      <point x="222" y="55"/>
      <point x="369" y="4"/>
      <point x="547" y="4" type="curve" smooth="yes"/>
      <point x="642" y="4"/>
      <point x="714" y="16"/>
      <point x="782" y="33" type="curve"/>
      <point x="778" y="56" type="line"/>
      <point x="707" y="38"/>
      <point x="632" y="27"/>
      <point x="546" y="27" type="curve" smooth="yes"/>
      <point x="385" y="27"/>
      <point x="225" y="81"/>
      <point x="132" y="181" type="curve"/>
      <point x="132" y="169" type="line"/>
      <point x="245" y="264"/>
      <point x="387" y="315"/>
      <point x="615" y="315" type="curve" smooth="yes"/>
    </contour>
    <contour>
      <point x="683" y="315" type="line"/>
      <point x="708" y="315" type="line"/>
      <point x="708" y="487" type="line"/>
      <point x="683" y="487" type="line"/>
    </contour>
    <contour>
      <point x="906" y="467" type="line"/>
      <point x="906" y="490" type="line"/>
      <point x="-10" y="490" type="line"/>
      <point x="-10" y="467" type="line"/>
    </contour>
  </outline>
</glyph>
<glyph name="grTTHA" format="1">
  <advance width="924"/>
  <unicode hex="0A20"/>
  <outline>
    <contour>
      <point x="934" y="467" type="line"/>
      <point x="934" y="490" type="line"/>
      <point x="-10" y="490" type="line"/>
      <point x="-10" y="467" type="line"/>
    </contour>
    <contour>
      <point x="480" y="490" type="line"/>
      <point x="455" y="490" type="line"/>
      <point x="455" y="351" type="line"/>
      <point x="480" y="351" type="line"/>
    </contour>
    <contour>
      <point x="201" y="20"/>
      <point x="109" y="112"/>
      <point x="109" y="164" type="curve" smooth="yes"/>
      <point x="109" y="220"/>
      <point x="189" y="285"/>
      <point x="468" y="338" type="curve"/>
      <point x="751" y="290"/>
      <point x="826" y="225"/>
      <point x="826" y="166" type="curve" smooth="yes"/>
      <point x="826" y="108"/>
      <point x="710" y="20"/>
      <point x="465" y="20" type="curve" smooth="yes"/>
    </contour>
    <contour>
      <point x="741" y="-3"/>
      <point x="851" y="100"/>
      <point x="851" y="166" type="curve" smooth="yes"/>
      <point x="851" y="233"/>
      <point x="786" y="310"/>
      <point x="477" y="359" type="curve"/>
      <point x="460" y="359" type="line"/>
      <point x="161" y="306"/>
      <point x="84" y="231"/>
      <point x="84" y="165" type="curve" smooth="yes"/>
      <point x="84" y="103"/>
      <point x="174" y="-3"/>
      <point x="465" y="-3" type="curve" smooth="yes"/>
    </contour>
    <contour>
      <point x="454" y="489" type="move" name="center"/>
    </contour>
  </outline>
</glyph>
<glyph name="grNNA" format="1">
  <advance width="828"/>
  <unicode hex="0A23"/>
  <outline>
    <contour>
      <point x="522" y="197" type="line"/>
      <point x="522" y="220" type="line"/>
      <point x="441" y="220" type="line" smooth="yes"/>
      <point x="301" y="220"/>
      <point x="189" y="182"/>
      <point x="109" y="118" type="curve"/>
      <point x="109" y="116" type="line"/>
      <point x="192" y="43"/>
      <point x="308" y="1"/>
      <point x="439" y="1" type="curve" smooth="yes"/>
      <point x="532" y="1"/>
      <point x="600" y="11"/>
      <point x="676" y="33" type="curve"/>
      <point x="669" y="55" type="line"/>
      <point x="594" y="33"/>
      <point x="526" y="24"/>
      <point x="439" y="24" type="curve" smooth="yes"/>
      <point x="320" y="24"/>
      <point x="204" y="64"/>
      <point x="135" y="124" type="curve"/>
      <point x="135" y="109" type="line"/>
      <point x="200" y="162"/>
      <point x="315" y="197"/>
      <point x="444" y="197" type="curve" smooth="yes"/>
    </contour>
    <contour>
      <point x="502" y="197" type="line"/>
      <point x="527" y="197" type="line"/>
      <point x="527" y="328" type="line"/>
      <point x="502" y="328" type="line"/>
    </contour>
    <contour>
      <point x="838" y="467" type="line"/>
      <point x="838" y="490" type="line"/>
      <point x="-10" y="490" type="line"/>
      <point x="-10" y="467" type="line"/>
    </contour>
    <contour>
      <point x="167" y="483" type="curve"/>
      <point x="143" y="474" type="line"/>
      <point x="268" y="374"/>
      <point x="423" y="317"/>
      <point x="645" y="303" type="curve" smooth="yes"/>
      <point x="739" y="297" type="line"/>
      <point x="742" y="318" type="line"/>
      <point x="651" y="324" type="line" smooth="yes"/>
      <point x="433" y="338"/>
      <point x="282" y="393"/>
    </contour>
  </outline>
</glyph>
<glyph name="grTHA" format="1">
  <advance width="926"/>
  <unicode hex="0A25"/>
  <outline>
    <contour>
      <point x="738" y="488" type="line"/>
      <point x="713" y="488" type="line"/>
      <point x="713" y="0" type="line"/>
      <point x="738" y="0" type="line"/>
    </contour>
    <contour>
      <point x="936" y="467" type="line"/>
      <point x="936" y="490" type="line"/>
      <point x="-10" y="490" type="line"/>
      <point x="-10" y="467" type="line"/>
    </contour>
    <contour>
      <point x="731" y="315" type="line"/>
      <point x="208" y="315" type="line"/>
      <point x="208" y="292" type="line"/>
      <point x="731" y="292" type="line"/>
    </contour>
    <contour>
      <point x="177" y="490" type="line"/>
      <point x="203" y="303" type="line"/>
      <point x="170" y="146" type="line"/>
      <point x="257" y="93"/>
      <point x="366" y="68"/>
      <point x="473" y="68" type="curve" smooth="yes"/>
      <point x="572" y="68"/>
      <point x="657" y="81"/>
      <point x="720" y="97" type="curve"/>
      <point x="720" y="121" type="line"/>
      <point x="659" y="105"/>
      <point x="562" y="91"/>
      <point x="473" y="91" type="curve" smooth="yes"/>
      <point x="379" y="91"/>
      <point x="259" y="119"/>
      <point x="189" y="164" type="curve"/>
      <point x="196" y="147" type="line"/>
      <point x="228" y="302" type="line"/>
      <point x="203" y="490" type="line"/>
    </contour>
  </outline>
</glyph>
<glyph name="grNA" format="1">
  <advance width="905"/>
  <unicode hex="0A28"/>
  <outline>
    <contour>
      <point x="915" y="467" type="line"/>
      <point x="915" y="490" type="line"/>
      <point x="-10" y="490" type="line"/>
      <point x="-10" y="467" type="line"/>
    </contour>
    <contour>
      <point x="464" y="488" type="line"/>
      <point x="439" y="488" type="line"/>
      <point x="439" y="347" type="line"/>
      <point x="464" y="347" type="line"/>
    </contour>
    <contour>
      <point x="571" y="24" type="curve"/>
      <point x="576" y="0" type="line"/>
      <point x="751" y="28"/>
      <point x="826" y="88"/>
      <point x="826" y="154" type="curve" smooth="yes"/>
      <point x="826" y="222"/>
      <point x="748" y="298"/>
      <point x="461" y="356" type="curve"/>
      <point x="444" y="356" type="line"/>
      <point x="176" y="298"/>
      <point x="77" y="222"/>
      <point x="77" y="151" type="curve" smooth="yes"/>
      <point x="77" y="90"/>
      <point x="155" y="25"/>
      <point x="322" y="0" type="curve"/>
      <point x="327" y="24" type="line"/>
      <point x="179" y="46"/>
      <point x="102" y="99"/>
      <point x="102" y="152" type="curve" smooth="yes"/>
      <point x="102" y="217"/>
      <point x="213" y="277"/>
      <point x="453" y="334" type="curve"/>
      <point x="712" y="277"/>
      <point x="802" y="214"/>
      <point x="802" y="154" type="curve" smooth="yes"/>
      <point x="802" y="97"/>
      <point x="725" y="48"/>
    </contour>
    <contour>
      <point x="439" y="489" type="move" name="center"/>
    </contour>
  </outline>
</glyph>
<glyph name="grPA" format="1">
  <advance width="861"/>
  <unicode hex="0A2A"/>
  <outline>
    <contour>
      <point x="673" y="488" type="line"/>
      <point x="648" y="488" type="line"/>
      <point x="648" y="0" type="line"/>
      <point x="673" y="0" type="line"/>
    </contour>
    <contour>
      <point x="648" y="490" type="line"/>
      <point x="648" y="467" type="line"/>
      <point x="871" y="467" type="line"/>
      <point x="871" y="490" type="line"/>
    </contour>
    <contour>
      <point x="193" y="467" type="line"/>
      <point x="190" y="490" type="line"/>
      <point x="-10" y="490" type="line"/>
      <point x="-10" y="467" type="line"/>
    </contour>
    <contour>
      <point x="168" y="490" type="line"/>
      <point x="194" y="305" type="line"/>
      <point x="161" y="150" type="line"/>
      <point x="248" y="97"/>
      <point x="357" y="72"/>
      <point x="450" y="72" type="curve" smooth="yes"/>
      <point x="536" y="72"/>
      <point x="610" y="85"/>
      <point x="665" y="101" type="curve"/>
      <point x="665" y="125" type="line"/>
      <point x="612" y="109"/>
      <point x="528" y="95"/>
      <point x="450" y="95" type="curve" smooth="yes"/>
      <point x="368" y="95"/>
      <point x="250" y="123"/>
      <point x="180" y="168" type="curve"/>
      <point x="187" y="151" type="line"/>
      <point x="219" y="304" type="line"/>
      <point x="194" y="490" type="line"/>
    </contour>
  </outline>
</glyph>
<glyph name="grBA" format="1">
  <advance width="985"/>
  <unicode hex="0A2C"/>
  <outline>
    <contour>
      <point x="167" y="486" type="curve"/>
      <point x="145" y="481" type="line"/>
      <point x="184" y="369"/>
      <point x="325" y="293"/>
      <point x="478" y="283" type="curve"/>
      <point x="478" y="292" type="line"/>
      <point x="334" y="284"/>
      <point x="223" y="230"/>
      <point x="142" y="157" type="curve"/>
      <point x="142" y="154" type="line"/>
      <point x="255" y="72"/>
      <point x="405" y="40"/>
      <point x="567" y="40" type="curve" smooth="yes"/>
      <point x="651" y="40"/>
      <point x="725" y="48"/>
      <point x="785" y="60" type="curve"/>
      <point x="785" y="83" type="line"/>
      <point x="718" y="70"/>
      <point x="644" y="63"/>
      <point x="568" y="63" type="curve" smooth="yes"/>
      <point x="413" y="63"/>
      <point x="259" y="98"/>
      <point x="168" y="164" type="curve"/>
      <point x="168" y="149" type="line"/>
      <point x="237" y="212"/>
      <point x="366" y="276"/>
      <point x="551" y="276" type="curve" smooth="yes"/>
      <point x="785" y="276" type="line"/>
      <point x="785" y="299" type="line"/>
      <point x="555" y="299" type="line" smooth="yes"/>
      <point x="361" y="299"/>
      <point x="199" y="381"/>
    </contour>
    <contour>
      <point x="797" y="488" type="line"/>
      <point x="772" y="488" type="line"/>
      <point x="772" y="0" type="line"/>
      <point x="797" y="0" type="line"/>
    </contour>
    <contour>
      <point x="995" y="467" type="line"/>
      <point x="995" y="490" type="line"/>
      <point x="-10" y="490" type="line"/>
      <point x="-10" y="467" type="line"/>
    </contour>
  </outline>
</glyph>
<glyph name="grmAI" format="1">
  <advance width="0"/>
  <unicode hex="0A48"/>
  <unicode hex="0A44"/>
  <outline>
    <contour>
      <point x="-687" y="654" type="line"/>
      <point x="-441" y="654"/>
      <point x="-274" y="595"/>
      <point x="-213" y="499" type="curve"/>
      <point x="-192" y="504" type="line"/>
      <point x="-250" y="612"/>
      <point x="-421" y="676"/>
      <point x="-683" y="676" type="curve"/>
    </contour>
    <contour>
      <point x="-523" y="780" type="line"/>
      <point x="-307" y="747"/>
      <point x="-213" y="652"/>
      <point x="-213" y="545" type="curve" smooth="yes"/>
      <point x="-213" y="467" type="line"/>
      <point x="-188" y="467" type="line"/>
      <point x="-188" y="544" type="line" smooth="yes"/>
      <point x="-188" y="664"/>
      <point x="-290" y="769"/>
      <point x="-517" y="801" type="curve"/>
    </contour>
  </outline>
</glyph>
<glyph name="grmAU" format="1">
  <advance width="0"/>
  <unicode hex="0A4C"/>
  <outline>
    <contour>
      <point x="-436" y="669" type="curve" smooth="yes"/>
      <point x="-391" y="669"/>
      <point x="-347" y="685"/>
      <point x="-295" y="727" type="curve"/>
      <point x="-307" y="743" type="line"/>
      <point x="-357" y="704"/>
      <point x="-395" y="692"/>
      <point x="-436" y="692" type="curve" smooth="yes"/>
      <point x="-478" y="692"/>
      <point x="-516" y="712"/>
      <point x="-560" y="775" type="curve"/>
      <point x="-577" y="762" type="line"/>
      <point x="-530" y="693"/>
      <point x="-489" y="669"/>
    </contour>
    <component base="grTippi"/>
    <contour>
      <point x="-197" y="489" type="move" name="_center"/>
    </contour>
  </outline>
</glyph>
<glyph name="grFive" format="1">
  <advance width="762"/>
  <unicode hex="0A6B"/>
  <outline>
    <contour>
      <point x="633" y="488" type="line"/>
      <point x="608" y="488" type="line"/>
      <point x="608" y="0" type="line"/>
      <point x="633" y="0" type="line"/>
    </contour>
    <contour>
      <point x="138" y="490" type="line"/>
      <point x="164" y="305" type="line"/>
      <point x="131" y="150" type="line"/>
      <point x="218" y="97"/>
      <point x="328" y="72"/>
      <point x="411" y="72" type="curve" smooth="yes"/>
      <point x="497" y="72"/>
      <point x="570" y="85"/>
      <point x="625" y="101" type="curve"/>
      <point x="625" y="125" type="line"/>
      <point x="571" y="108"/>
      <point x="488" y="95"/>
      <point x="410" y="95" type="curve" smooth="yes"/>
      <point x="334" y="95"/>
      <point x="220" y="123"/>
      <point x="150" y="168" type="curve"/>
      <point x="157" y="151" type="line"/>
      <point x="189" y="304" type="line"/>
      <point x="164" y="490" type="line"/>
    </contour>
  </outline>
</glyph>
<glyph name="grUra" format="1">
  <advance width="1020"/>
  <unicode hex="0A73"/>
  <outline>
    <contour>
      <point x="-10" y="490" type="line"/>
      <point x="-10" y="467" type="line"/>
      <point x="1030" y="467" type="line"/>
      <point x="1030" y="490" type="line"/>
    </contour>
    <contour>
      <point x="184" y="556"/>
      <point x="355" y="675"/>
      <point x="564" y="675" type="curve" smooth="yes"/>
      <point x="738" y="675"/>
      <point x="865" y="594"/>
      <point x="865" y="468" type="curve" smooth="yes"/>
      <point x="865" y="352"/>
      <point x="778" y="263"/>
      <point x="587" y="263" type="curve" smooth="yes"/>
      <point x="196" y="263" type="line"/>
      <point x="196" y="240" type="line"/>
      <point x="592" y="240" type="line" smooth="yes"/>
      <point x="718" y="240"/>
      <point x="776" y="189"/>
      <point x="776" y="138" type="curve" smooth="yes"/>
      <point x="776" y="83"/>
      <point x="716" y="33"/>
      <point x="579" y="33" type="curve" smooth="yes"/>
      <point x="359" y="33"/>
      <point x="184" y="175"/>
      <point x="184" y="382" type="curve" smooth="yes"/>
    </contour>
    <contour>
      <point x="342" y="698"/>
      <point x="159" y="572"/>
      <point x="159" y="382" type="curve" smooth="yes"/>
      <point x="159" y="167"/>
      <point x="341" y="10"/>
      <point x="579" y="10" type="curve" smooth="yes"/>
      <point x="733" y="10"/>
      <point x="800" y="70"/>
      <point x="800" y="138" type="curve" smooth="yes"/>
      <point x="800" y="193"/>
      <point x="754" y="245"/>
      <point x="658" y="255" type="curve"/>
      <point x="657" y="247" type="line"/>
      <point x="788" y="256"/>
      <point x="890" y="338"/>
      <point x="890" y="468" type="curve" smooth="yes"/>
      <point x="890" y="606"/>
      <point x="757" y="698"/>
      <point x="562" y="698" type="curve" smooth="yes"/>
    </contour>
  </outline>
</glyph>
<glyph name="grEkonkar" format="1">
  <advance width="2505"/>
  <unicode hex="0A74"/>
  <outline>
    <contour>
      <point x="611" y="490" type="line"/>
      <point x="611" y="467" type="line"/>
      <point x="1561" y="467" type="line"/>
      <point x="1561" y="490" type="line"/>
    </contour>
    <contour>
      <point x="765" y="382" type="curve" smooth="yes"/>
      <point x="765" y="556"/>
      <point x="934" y="675"/>
      <point x="1134.0" y="675.0" type="curve" smooth="yes"/>
      <point x="1255" y="675"/>
      <point x="1339" y="643"/>
      <point x="1416" y="593" type="curve"/>
      <point x="1418" y="593" type="line"/>
      <point x="1572" y="722"/>
      <point x="1778" y="790"/>
      <point x="1955" y="790" type="curve" smooth="yes"/>
      <point x="2121" y="790"/>
      <point x="2285" y="738"/>
      <point x="2427" y="606" type="curve"/>
      <point x="2444" y="621" type="line"/>
      <point x="2302" y="755"/>
      <point x="2135" y="813"/>
      <point x="1955" y="813" type="curve" smooth="yes"/>
      <point x="1761" y="813"/>
      <point x="1552" y="737"/>
      <point x="1407" y="614" type="curve"/>
      <point x="1426" y="614" type="line"/>
      <point x="1353" y="661"/>
      <point x="1264" y="698"/>
      <point x="1132" y="698" type="curve" smooth="yes"/>
      <point x="921" y="698"/>
      <point x="740" y="572"/>
      <point x="740" y="382" type="curve" smooth="yes"/>
      <point x="740" y="167"/>
      <point x="912" y="10"/>
      <point x="1150" y="10" type="curve" smooth="yes"/>
      <point x="1284" y="10"/>
      <point x="1351" y="70"/>
      <point x="1351" y="138" type="curve" smooth="yes"/>
      <point x="1351" y="193"/>
      <point x="1305" y="245"/>
      <point x="1209" y="255" type="curve"/>
      <point x="1208" y="247" type="line"/>
      <point x="1339" y="256"/>
      <point x="1441" y="338"/>
      <point x="1441" y="468" type="curve"/>
      <point x="1416" y="468" type="line"/>
      <point x="1416" y="352"/>
      <point x="1329" y="263"/>
      <point x="1138" y="263" type="curve" smooth="yes"/>
      <point x="777" y="263" type="line"/>
      <point x="777" y="240" type="line"/>
      <point x="1143" y="240" type="line" smooth="yes"/>
      <point x="1269" y="240"/>
      <point x="1327" y="189"/>
      <point x="1327" y="138" type="curve" smooth="yes"/>
      <point x="1327" y="83"/>
      <point x="1267" y="33"/>
      <point x="1150" y="33" type="curve" smooth="yes"/>
      <point x="930" y="33"/>
      <point x="765" y="175"/>
    </contour>
    <component base="grOne"/>
  </outline>
</glyph>
<glyph name="endash" format="1">
  <advance width="595"/>
  <unicode hex="2013"/>
  <outline>
    <contour>
      <point x="28" y="190" type="line"/>
      <point x="28" y="167" type="line"/>
      <point x="567" y="167" type="line"/>
      <point x="567" y="190" type="line"/>
    </contour>
  </outline>
</glyph>
<glyph name="quoteleft" format="1">
  <advance width="317"/>
  <unicode hex="2018"/>
  <outline>
    <contour>
      <point x="169" y="367"/>
      <point x="188" y="382"/>
      <point x="188" y="401" type="curve" smooth="yes"/>
      <point x="188" y="419"/>
      <point x="170" y="431"/>
      <point x="145" y="431" type="curve" smooth="yes"/>
      <point x="130" y="431"/>
      <point x="117" y="429"/>
      <point x="105" y="426" type="curve"/>
      <point x="112" y="470"/>
      <point x="153" y="515"/>
      <point x="203" y="560" type="curve"/>
      <point x="191" y="572" type="line"/>
      <point x="130" y="524"/>
      <point x="84" y="462"/>
      <point x="84" y="419" type="curve" smooth="yes"/>
      <point x="84" y="387"/>
      <point x="103" y="367"/>
      <point x="138" y="367" type="curve" smooth="yes"/>
    </contour>
  </outline>
</glyph>
<glyph name="quoteright" format="1">
  <advance width="317"/>
  <unicode hex="2019"/>
  <outline>
    <contour>
      <point x="186" y="416"/>
      <point x="233" y="478"/>
      <point x="233" y="521" type="curve" smooth="yes"/>
      <point x="233" y="553"/>
      <point x="214" y="573"/>
      <point x="179" y="573" type="curve" smooth="yes"/>
      <point x="148" y="573"/>
      <point x="129" y="558"/>
      <point x="129" y="539" type="curve" smooth="yes"/>
      <point x="129" y="520"/>
      <point x="147" y="509"/>
      <point x="172" y="509" type="curve" smooth="yes"/>
      <point x="187" y="509"/>
      <point x="200" y="511"/>
      <point x="212" y="513" type="curve"/>
      <point x="205" y="469"/>
      <point x="164" y="425"/>
      <point x="114" y="380" type="curve"/>
      <point x="125" y="368" type="line"/>
    </contour>
  </outline>
</glyph>
<glyph name="quotedblleft" format="1">
  <advance width="440"/>
  <unicode hex="201C"/>
  <outline>
    <contour>
      <point x="312" y="367"/>
      <point x="331" y="382"/>
      <point x="331" y="401" type="curve" smooth="yes"/>
      <point x="331" y="419"/>
      <point x="313" y="431"/>
      <point x="288" y="431" type="curve" smooth="yes"/>
      <point x="273" y="431"/>
      <point x="260" y="429"/>
      <point x="248" y="426" type="curve"/>
      <point x="255" y="470"/>
      <point x="296" y="515"/>
      <point x="346" y="560" type="curve"/>
      <point x="334" y="572" type="line"/>
      <point x="273" y="524"/>
      <point x="227" y="462"/>
      <point x="227" y="419" type="curve" smooth="yes"/>
      <point x="227" y="387"/>
      <point x="246" y="367"/>
      <point x="281" y="367" type="curve" smooth="yes"/>
    </contour>
    <contour>
      <point x="169" y="367"/>
      <point x="188" y="382"/>
      <point x="188" y="401" type="curve" smooth="yes"/>
      <point x="188" y="419"/>
      <point x="170" y="431"/>
      <point x="145" y="431" type="curve" smooth="yes"/>
      <point x="130" y="431"/>
      <point x="117" y="429"/>
      <point x="105" y="426" type="curve"/>
      <point x="112" y="470"/>
      <point x="153" y="515"/>
      <point x="203" y="560" type="curve"/>
      <point x="191" y="572" type="line"/>
      <point x="130" y="524"/>
      <point x="84" y="462"/>
      <point x="84" y="419" type="curve" smooth="yes"/>
      <point x="84" y="387"/>
      <point x="103" y="367"/>
      <point x="138" y="367" type="curve" smooth="yes"/>
    </contour>
  </outline>
</glyph>
<glyph name="quotedblright" format="1">
  <advance width="460"/>
  <unicode hex="201D"/>
  <outline>
    <contour>
      <point x="329" y="406"/>
      <point x="376" y="468"/>
      <point x="376" y="511" type="curve" smooth="yes"/>
      <point x="376" y="543"/>
      <point x="357" y="563"/>
      <point x="322" y="563" type="curve" smooth="yes"/>
      <point x="291" y="563"/>
      <point x="272" y="548"/>
      <point x="272" y="529" type="curve" smooth="yes"/>
      <point x="272" y="510"/>
      <point x="290" y="499"/>
      <point x="315" y="499" type="curve" smooth="yes"/>
      <point x="330" y="499"/>
      <point x="343" y="501"/>
      <point x="355" y="503" type="curve"/>
      <point x="348" y="459"/>
      <point x="307" y="415"/>
      <point x="257" y="370" type="curve"/>
      <point x="268" y="358" type="line"/>
    </contour>
    <contour>
      <point x="186" y="406"/>
      <point x="233" y="468"/>
      <point x="233" y="511" type="curve" smooth="yes"/>
      <point x="233" y="543"/>
      <point x="214" y="563"/>
      <point x="179" y="563" type="curve" smooth="yes"/>
      <point x="148" y="563"/>
      <point x="129" y="548"/>
      <point x="129" y="529" type="curve" smooth="yes"/>
      <point x="129" y="510"/>
      <point x="147" y="499"/>
      <point x="172" y="499" type="curve" smooth="yes"/>
      <point x="187" y="499"/>
      <point x="200" y="501"/>
      <point x="212" y="503" type="curve"/>
      <point x="205" y="459"/>
      <point x="164" y="415"/>
      <point x="114" y="370" type="curve"/>
      <point x="125" y="358" type="line"/>
    </contour>
  </outline>
</glyph>
<glyph name="ellipsis" format="1">
  <advance width="738"/>
  <unicode hex="2026"/>
  <outline>
    <contour>
      <point x="647" y="-10"/>
      <point x="664" y="4"/>
      <point x="664" y="22" type="curve"/>
      <point x="664" y="41"/>
      <point x="647" y="54"/>
      <point x="615" y="54" type="curve"/>
      <point x="584" y="54"/>
      <point x="566" y="41"/>
      <point x="566" y="22" type="curve"/>
      <point x="566" y="4"/>
      <point x="584" y="-10"/>
      <point x="615" y="-10" type="curve"/>
    </contour>
    <contour>
      <point x="155" y="-10"/>
      <point x="172" y="4"/>
      <point x="172" y="22" type="curve"/>
      <point x="172" y="41"/>
      <point x="155" y="54"/>
      <point x="123" y="54" type="curve"/>
      <point x="92" y="54"/>
      <point x="74" y="41"/>
      <point x="74" y="22" type="curve"/>
      <point x="74" y="4"/>
      <point x="92" y="-10"/>
      <point x="123" y="-10" type="curve"/>
    </contour>
    <contour>
      <point x="401" y="-10"/>
      <point x="418" y="4"/>
      <point x="418" y="22" type="curve"/>
      <point x="418" y="41"/>
      <point x="401" y="54"/>
      <point x="369" y="54" type="curve"/>
      <point x="338" y="54"/>
      <point x="320" y="41"/>
      <point x="320" y="22" type="curve"/>
      <point x="320" y="4"/>
      <point x="338" y="-10"/>
      <point x="369" y="-10" type="curve"/>
    </contour>
  </outline>
</glyph>
<glyph name="indianrupee" format="1">
  <advance width="868"/>
  <unicode hex="20B9"/>
  <outline>
    <contour>
      <point x="753" y="444" type="line"/>
      <point x="753" y="467" type="line"/>
      <point x="126" y="467" type="line"/>
      <point x="126" y="444" type="line"/>
    </contour>
    <contour>
      <point x="141" y="170" type="line"/>
      <point x="641" y="-4" type="line"/>
      <point x="651" y="18" type="line"/>
      <point x="169" y="182" type="line"/>
      <point x="146" y="191" type="line"/>
    </contour>
    <contour>
      <point x="753" y="302" type="line"/>
      <point x="753" y="325" type="line"/>
      <point x="126" y="325" type="line"/>
      <point x="126" y="302" type="line"/>
    </contour>
    <contour>
      <point x="402" y="444" type="line"/>
      <point x="504" y="444"/>
      <point x="590" y="385"/>
      <point x="590" y="320" type="curve" smooth="yes"/>
      <point x="590" y="243"/>
      <point x="520" y="191"/>
      <point x="317" y="191" type="curve" smooth="yes"/>
      <point x="146" y="191" type="line"/>
      <point x="155" y="169" type="line"/>
      <point x="321" y="169" type="line" smooth="yes"/>
      <point x="538" y="169"/>
      <point x="613" y="228"/>
      <point x="613" y="318" type="curve" smooth="yes"/>
      <point x="613" y="398"/>
      <point x="535" y="458"/>
      <point x="405" y="463" type="curve"/>
    </contour>
  </outline>
</glyph>
<glyph name="dottedcircle" format="1">
  <advance width="660"/>
  <unicode hex="25CC"/>
  <outline>
    <contour>
      <point x="120" y="280"/>
      <point x="137" y="294"/>
      <point x="137" y="312" type="curve"/>
      <point x="137" y="331"/>
      <point x="120" y="344"/>
      <point x="88" y="344" type="curve"/>
      <point x="57" y="344"/>
      <point x="39" y="331"/>
      <point x="39" y="312" type="curve"/>
      <point x="39" y="294"/>
      <point x="57" y="280"/>
      <point x="88" y="280" type="curve"/>
    </contour>
    <contour>
      <point x="606" y="280"/>
      <point x="623" y="294"/>
      <point x="623" y="312" type="curve"/>
      <point x="623" y="331"/>
      <point x="606" y="344"/>
      <point x="574" y="344" type="curve"/>
      <point x="543" y="344"/>
      <point x="525" y="331"/>
      <point x="525" y="312" type="curve"/>
      <point x="525" y="294"/>
      <point x="543" y="280"/>
      <point x="574" y="280" type="curve"/>
    </contour>
    <contour>
      <point x="363" y="57"/>
      <point x="380" y="71"/>
      <point x="380" y="89" type="curve"/>
      <point x="380" y="108"/>
      <point x="363" y="121"/>
      <point x="331" y="121" type="curve"/>
      <point x="300" y="121"/>
      <point x="282" y="108"/>
      <point x="282" y="89" type="curve"/>
      <point x="282" y="71"/>
      <point x="300" y="57"/>
      <point x="331" y="57" type="curve"/>
    </contour>
    <contour>
      <point x="363" y="508"/>
      <point x="380" y="522"/>
      <point x="380" y="540" type="curve"/>
      <point x="380" y="559"/>
      <point x="363" y="572"/>
      <point x="331" y="572" type="curve"/>
      <point x="300" y="572"/>
      <point x="282" y="559"/>
      <point x="282" y="540" type="curve"/>
      <point x="282" y="522"/>
      <point x="300" y="508"/>
      <point x="331" y="508" type="curve"/>
    </contour>
    <contour>
      <point x="577" y="392"/>
      <point x="594" y="406"/>
      <point x="594" y="424" type="curve"/>
      <point x="594" y="443"/>
      <point x="577" y="456"/>
      <point x="545" y="456" type="curve"/>
      <point x="514" y="456"/>
      <point x="496" y="443"/>
      <point x="496" y="424" type="curve"/>
      <point x="496" y="406"/>
      <point x="514" y="392"/>
      <point x="545" y="392" type="curve"/>
    </contour>
    <contour>
      <point x="498" y="471"/>
      <point x="515" y="485"/>
      <point x="515" y="503" type="curve"/>
      <point x="515" y="522"/>
      <point x="498" y="535"/>
      <point x="466" y="535" type="curve"/>
      <point x="435" y="535"/>
      <point x="417" y="522"/>
      <point x="417" y="503" type="curve"/>
      <point x="417" y="485"/>
      <point x="435" y="471"/>
      <point x="466" y="471" type="curve"/>
    </contour>
    <contour>
      <point x="229" y="471"/>
      <point x="246" y="485"/>
      <point x="246" y="503" type="curve"/>
      <point x="246" y="522"/>
      <point x="229" y="535"/>
      <point x="197" y="535" type="curve"/>
      <point x="166" y="535"/>
      <point x="148" y="522"/>
      <point x="148" y="503" type="curve"/>
      <point x="148" y="485"/>
      <point x="166" y="471"/>
      <point x="197" y="471" type="curve"/>
    </contour>
    <contour>
      <point x="150" y="392"/>
      <point x="167" y="406"/>
      <point x="167" y="424" type="curve"/>
      <point x="167" y="443"/>
      <point x="150" y="456"/>
      <point x="118" y="456" type="curve"/>
      <point x="87" y="456"/>
      <point x="69" y="443"/>
      <point x="69" y="424" type="curve"/>
      <point x="69" y="406"/>
      <point x="87" y="392"/>
      <point x="118" y="392" type="curve"/>
    </contour>
    <contour>
      <point x="577" y="170"/>
      <point x="594" y="184"/>
      <point x="594" y="202" type="curve"/>
      <point x="594" y="221"/>
      <point x="577" y="234"/>
      <point x="545" y="234" type="curve"/>
      <point x="514" y="234"/>
      <point x="496" y="221"/>
      <point x="496" y="202" type="curve"/>
      <point x="496" y="184"/>
      <point x="514" y="170"/>
      <point x="545" y="170" type="curve"/>
    </contour>
    <contour>
      <point x="150" y="170"/>
      <point x="167" y="184"/>
      <point x="167" y="202" type="curve"/>
      <point x="167" y="221"/>
      <point x="150" y="234"/>
      <point x="118" y="234" type="curve"/>
      <point x="87" y="234"/>
      <point x="69" y="221"/>
      <point x="69" y="202" type="curve"/>
      <point x="69" y="184"/>
      <point x="87" y="170"/>
      <point x="118" y="170" type="curve"/>
    </contour>
    <contour>
      <point x="498" y="90"/>
      <point x="515" y="104"/>
      <point x="515" y="122" type="curve"/>
      <point x="515" y="141"/>
      <point x="498" y="154"/>
      <point x="466" y="154" type="curve"/>
      <point x="435" y="154"/>
      <point x="417" y="141"/>
      <point x="417" y="122" type="curve"/>
      <point x="417" y="104"/>
      <point x="435" y="90"/>
      <point x="466" y="90" type="curve"/>
    </contour>
    <contour>
      <point x="229" y="90"/>
      <point x="246" y="104"/>
      <point x="246" y="122" type="curve"/>
      <point x="246" y="141"/>
      <point x="229" y="154"/>
      <point x="197" y="154" type="curve"/>
      <point x="166" y="154"/>
      <point x="148" y="141"/>
      <point x="148" y="122" type="curve"/>
      <point x="148" y="104"/>
      <point x="166" y="90"/>
      <point x="197" y="90" type="curve"/>
    </contour>
  </outline>
</glyph>
<glyph name="doubledanda" format="1">
  <advance width="577"/>
  <outline>
    <contour>
      <point x="263" y="578" type="line"/>
      <point x="263" y="-121" type="line"/>
      <point x="288" y="-121" type="line"/>
      <point x="288" y="578" type="line"/>
    </contour>
    <contour>
      <point x="473" y="578" type="line"/>
      <point x="473" y="-121" type="line"/>
      <point x="498" y="-121" type="line"/>
      <point x="498" y="578" type="line"/>
    </contour>
  </outline>
</glyph>
<glyph name="grAddak.alt" format="1">
  <advance width="0"/>
  <outline>
    <contour>
      <point x="-13" y="635" type="curve" smooth="yes"/>
      <point x="-62" y="635"/>
      <point x="-112" y="668"/>
      <point x="-138" y="747" type="curve"/>
      <point x="-157" y="741" type="line"/>
      <point x="-130" y="651"/>
      <point x="-73" y="612"/>
      <point x="-13" y="612" type="curve" smooth="yes"/>
      <point x="52" y="612"/>
      <point x="103" y="647"/>
      <point x="130" y="739" type="curve"/>
      <point x="111" y="745" type="line"/>
      <point x="88" y="667"/>
      <point x="42" y="635"/>
    </contour>
    <contour>
      <point x="-199.0" y="489.0" type="move" name="_center"/>
    </contour>
  </outline>
</glyph>
<glyph name="grBindi.alt" format="1">
  <advance width="0"/>
  <outline>
    <contour>
      <point x="-29" y="623"/>
      <point x="-13" y="636"/>
      <point x="-13" y="653" type="curve"/>
      <point x="-13" y="671"/>
      <point x="-29" y="684"/>
      <point x="-60" y="684" type="curve"/>
      <point x="-90" y="684"/>
      <point x="-107" y="671"/>
      <point x="-107" y="653" type="curve"/>
      <point x="-107" y="636"/>
      <point x="-90" y="623"/>
      <point x="-60" y="623" type="curve"/>
    </contour>
  </outline>
</glyph>
<glyph name="grNA_RAc2" format="1">
  <advance width="905"/>
  <outline>
    <component base="grNA"/>
    <component base="grRAc2" xOffset="789" yOffset="-10"/>
    <contour>
      <point x="439" y="489" type="move" name="center"/>
    </contour>
  </outline>
</glyph>
<glyph name="grTippi.alt" format="1">
  <advance width="0"/>
  <outline>
    <contour>
      <point x="-71" y="613" type="line"/>
      <point x="-89" y="633"/>
      <point x="-97" y="649"/>
      <point x="-97" y="670" type="curve" smooth="yes"/>
      <point x="-97" y="710"/>
      <point x="-54" y="746"/>
      <point x="13" y="746" type="curve" smooth="yes"/>
      <point x="83" y="746"/>
      <point x="126" y="708"/>
      <point x="126" y="673" type="curve" smooth="yes"/>
      <point x="126" y="651"/>
      <point x="118" y="634"/>
      <point x="102" y="614" type="curve"/>
      <point x="119" y="604" type="line"/>
      <point x="135" y="622"/>
      <point x="148" y="645"/>
      <point x="148" y="673" type="curve" smooth="yes"/>
      <point x="148" y="721"/>
      <point x="100" y="767"/>
      <point x="13" y="767" type="curve" smooth="yes"/>
      <point x="-74" y="767"/>
      <point x="-119" y="720"/>
      <point x="-119" y="671" type="curve" smooth="yes"/>
      <point x="-119" y="645"/>
      <point x="-108" y="624"/>
      <point x="-88" y="602" type="curve"/>
    </contour>
    <contour>
      <point x="-205.0" y="489.0" type="move" name="_center"/>
    </contour>
  </outline>
</glyph>
<glyph name="grmAU_Bindi" format="1">
  <advance width="0"/>
  <outline>
    <component base="grmAU"/>
    <component base="grBindi" xOffset="260"/>
    <contour>
      <point x="-195" y="489" type="move" name="_center"/>
    </contour>
  </outline>
</glyph>
<glyph name="grmOO.alt" format="1">
  <advance width="0"/>
  <outline>
    <contour>
      <point x="-385" y="683"/>
      <point x="-427" y="613"/>
      <point x="-488" y="613" type="curve" smooth="yes"/>
      <point x="-535" y="613"/>
      <point x="-567" y="639"/>
      <point x="-605" y="691" type="curve"/>
      <point x="-619" y="678" type="line"/>
      <point x="-582" y="620"/>
      <point x="-541" y="590"/>
      <point x="-488" y="590" type="curve" smooth="yes"/>
      <point x="-420" y="590"/>
      <point x="-377" y="660"/>
      <point x="-314" y="660" type="curve" smooth="yes"/>
      <point x="-254" y="660"/>
      <point x="-222" y="599"/>
      <point x="-207" y="486" type="curve"/>
      <point x="-187" y="486" type="line"/>
      <point x="-203" y="615"/>
      <point x="-244" y="683"/>
      <point x="-314" y="683" type="curve" smooth="yes"/>
    </contour>
  </outline>
</glyph>
<glyph name="grmUU.alt2" format="1">
  <advance width="0"/>
  <outline>
    <component base="grmUU" yOffset="-170"/>
    <contour>
      <point x="-440.0" y="489.0" type="move" name="center"/>
    </contour>
  </outline>
</glyph>
